<?xml version="1.0" standalone="no"?>
<!DOCTYPE svg PUBLIC "-//W3C//DTD SVG 20010904//EN"
 "http://www.w3.org/TR/2001/REC-SVG-20010904/DTD/svg10.dtd">
<svg version="1.0" xmlns="http://www.w3.org/2000/svg"
 width="1024.000000pt" height="1024.000000pt" viewBox="0 0 1024.000000 1024.000000"
 preserveAspectRatio="xMidYMid meet">

<g transform="translate(0.000000,1024.000000) scale(0.100000,-0.100000)"
fill="#000000" stroke="none">
<path d="M120 10155 c0 -50 4 -85 10 -85 6 0 9 3 8 8 -1 4 1 18 5 32 3 14 8
49 12 78 5 48 4 52 -15 52 -19 0 -20 -6 -20 -85z"/>
<path d="M312 10220 c0 -14 2 -19 5 -12 2 6 2 18 0 25 -3 6 -5 1 -5 -13z"/>
<path d="M1966 10183 c8 -72 14 -80 14 -20 0 25 5 49 10 52 17 10 11 25 -10
25 -19 0 -20 -4 -14 -57z"/>
<path d="M2752 10220 c0 -14 2 -19 5 -12 2 6 2 18 0 25 -3 6 -5 1 -5 -13z"/>
<path d="M2982 10220 c0 -14 2 -19 5 -12 2 6 2 18 0 25 -3 6 -5 1 -5 -13z"/>
<path d="M3791 10198 c1 -37 2 -39 9 -18 12 36 12 60 0 60 -5 0 -10 -19 -9
-42z"/>
<path d="M3982 10220 c0 -14 2 -19 5 -12 2 6 2 18 0 25 -3 6 -5 1 -5 -13z"/>
<path d="M4622 10215 c0 -16 2 -22 5 -12 2 9 2 23 0 30 -3 6 -5 -1 -5 -18z"/>
<path d="M7083 10180 c0 -36 2 -50 4 -32 2 17 2 47 0 65 -2 17 -4 3 -4 -33z"/>
<path d="M8132 10220 c0 -14 2 -19 5 -12 2 6 2 18 0 25 -3 6 -5 1 -5 -13z"/>
<path d="M8752 10220 c0 -14 2 -19 5 -12 2 6 2 18 0 25 -3 6 -5 1 -5 -13z"/>
<path d="M2982 10140 c0 -14 2 -19 5 -12 2 6 2 18 0 25 -3 6 -5 1 -5 -13z"/>
<path d="M4622 10140 c0 -14 2 -19 5 -12 2 6 2 18 0 25 -3 6 -5 1 -5 -13z"/>
<path d="M6063 10105 c0 -33 2 -45 4 -27 2 18 2 45 0 60 -2 15 -4 0 -4 -33z"/>
<path d="M8552 10100 c0 -14 2 -19 5 -12 2 6 2 18 0 25 -3 6 -5 1 -5 -13z"/>
<path d="M13 10033 c9 -2 25 -2 35 0 9 3 1 5 -18 5 -19 0 -27 -2 -17 -5z"/>
<path d="M333 10000 c0 -25 2 -35 4 -22 2 12 2 32 0 45 -2 12 -4 2 -4 -23z"/>
<path d="M1362 10020 c0 -14 2 -19 5 -12 2 6 2 18 0 25 -3 6 -5 1 -5 -13z"/>
<path d="M2893 10033 c9 -2 25 -2 35 0 9 3 1 5 -18 5 -19 0 -27 -2 -17 -5z"/>
<path d="M8493 10033 c9 -2 25 -2 35 0 9 3 1 5 -18 5 -19 0 -27 -2 -17 -5z"/>
<path d="M3593 9955 c0 -44 2 -61 4 -37 2 23 2 59 0 80 -2 20 -4 1 -4 -43z"/>
<path d="M3735 10023 c11 -3 26 -10 34 -17 11 -9 13 -8 9 4 -2 8 -18 16 -34
17 -18 1 -22 0 -9 -4z"/>
<path d="M3993 9955 c0 -44 2 -61 4 -37 2 23 2 59 0 80 -2 20 -4 1 -4 -43z"/>
<path d="M4413 9935 c0 -38 2 -53 4 -32 2 20 2 52 0 70 -2 17 -4 1 -4 -38z"/>
<path d="M5852 9940 c0 -14 2 -19 5 -12 2 6 2 18 0 25 -3 6 -5 1 -5 -13z"/>
<path d="M2773 9875 c0 -27 2 -38 4 -22 2 15 2 37 0 50 -2 12 -4 0 -4 -28z"/>
<path d="M8763 9880 c0 -25 2 -35 4 -22 2 12 2 32 0 45 -2 12 -4 2 -4 -23z"/>
<path d="M2352 9860 c0 -14 2 -19 5 -12 2 6 2 18 0 25 -3 6 -5 1 -5 -13z"/>
<path d="M3181 9864 c0 -11 3 -14 6 -6 3 7 2 16 -1 19 -3 4 -6 -2 -5 -13z"/>
<path d="M3565 9820 c3 -5 8 -10 11 -10 2 0 4 5 4 10 0 6 -5 10 -11 10 -5 0
-7 -4 -4 -10z"/>
<path d="M9458 9633 c12 -2 32 -2 45 0 12 2 2 4 -23 4 -25 0 -35 -2 -22 -4z"/>
<path d="M488 9613 c6 -2 18 -2 25 0 6 3 1 5 -13 5 -14 0 -19 -2 -12 -5z"/>
<path d="M941 9544 c1 -44 4 -65 6 -49 10 83 14 95 33 95 11 0 20 5 20 10 0 6
-6 10 -14 10 -8 0 -21 3 -30 6 -14 5 -16 -5 -15 -72z"/>
<path d="M8928 9613 c7 -3 16 -2 19 1 4 3 -2 6 -13 5 -11 0 -14 -3 -6 -6z"/>
<path d="M3772 9590 c0 -14 2 -19 5 -12 2 6 2 18 0 25 -3 6 -5 1 -5 -13z"/>
<path d="M3773 9520 c0 -25 2 -35 4 -22 2 12 2 32 0 45 -2 12 -4 2 -4 -23z"/>
<path d="M7503 9515 c0 -22 2 -30 4 -17 2 12 2 30 0 40 -3 9 -5 -1 -4 -23z"/>
<path d="M1542 9500 c0 -14 2 -19 5 -12 2 6 2 18 0 25 -3 6 -5 1 -5 -13z"/>
<path d="M7101 9504 c0 -11 3 -14 6 -6 3 7 2 16 -1 19 -3 4 -6 -2 -5 -13z"/>
<path d="M7100 9455 c0 -14 4 -25 9 -25 4 0 6 11 3 25 -2 14 -6 25 -8 25 -2 0
-4 -11 -4 -25z"/>
<path d="M7491 9444 c0 -11 3 -14 6 -6 3 7 2 16 -1 19 -3 4 -6 -2 -5 -13z"/>
<path d="M8536 9443 c-6 -14 -5 -15 5 -6 7 7 10 15 7 18 -3 3 -9 -2 -12 -12z"/>
<path d="M8760 9448 c0 -16 9 -18 63 -16 l62 2 -55 3 c-30 3 -58 10 -62 16 -5
8 -8 6 -8 -5z"/>
<path d="M7312 9403 l-10 -48 -2 40 c-2 35 -3 31 -15 -30 -7 -39 -24 -93 -37
-120 -14 -28 -36 -75 -49 -105 -13 -30 -38 -79 -55 -108 -18 -29 -49 -97 -69
-150 -66 -173 -396 -853 -491 -1012 -31 -52 -82 -129 -113 -170 -31 -41 -78
-104 -103 -140 -46 -65 -276 -292 -302 -298 -34 -7 -24 23 25 76 203 222 489
689 619 1009 37 92 95 218 129 278 34 61 70 133 80 160 11 28 35 85 55 129 20
43 36 83 36 87 0 23 74 196 126 293 31 59 54 109 52 111 -5 5 -87 -87 -141
-159 -51 -67 -72 -109 -92 -187 -25 -95 -99 -270 -163 -384 -72 -129 -81 -147
-157 -331 -175 -419 -374 -728 -639 -988 -185 -182 -217 -201 -108 -65 159
199 209 269 303 427 119 198 243 421 276 497 12 27 34 79 49 115 14 36 49 119
76 185 28 66 66 158 85 205 19 49 31 70 28 50 -6 -31 -3 -29 20 20 44 90 64
147 79 218 8 37 13 68 11 70 -8 9 -86 -116 -101 -161 -19 -59 -109 -244 -130
-268 -8 -8 -41 -80 -75 -160 -34 -79 -80 -189 -104 -244 -61 -144 -209 -410
-318 -575 -50 -74 -213 -280 -223 -280 -6 0 -3 5 34 63 13 22 21 41 19 43 -8
8 -78 -96 -108 -160 -16 -34 -42 -83 -59 -111 -16 -27 -33 -58 -36 -67 -3 -10
-9 -18 -13 -18 -4 0 -47 -38 -96 -85 -49 -47 -93 -85 -97 -85 -5 0 42 51 105
113 117 115 131 135 202 304 12 28 47 86 77 130 73 106 105 161 242 420 133
252 202 403 251 548 31 93 61 252 50 263 -2 3 -16 -3 -29 -12 -19 -12 -33 -40
-57 -119 -71 -228 -242 -616 -314 -711 -13 -17 -38 -64 -55 -104 -39 -91 -72
-148 -148 -250 -33 -45 -70 -107 -81 -138 -12 -30 -29 -70 -38 -87 -25 -49
-115 -158 -210 -255 -92 -93 -93 -87 -3 17 125 144 183 217 199 251 20 40 54
143 70 213 18 78 71 175 128 233 57 58 51 71 -13 28 l-38 -26 27 33 c33 40
199 373 252 504 19 50 45 126 56 170 11 43 25 88 31 100 30 57 252 289 286
298 12 3 11 5 -5 6 -13 0 -23 7 -24 14 0 6 -4 2 -9 -10 -7 -17 -18 -23 -41
-23 -25 0 -40 -9 -66 -40 -39 -45 -33 -45 -167 -4 -186 57 -470 111 -712 135
-256 26 -730 10 -989 -31 -237 -38 -549 -124 -750 -207 -340 -140 -662 -321
-907 -510 -210 -161 -448 -400 -615 -618 -88 -115 -282 -400 -360 -530 -275
-459 -456 -1051 -502 -1644 -48 -611 80 -1264 355 -1814 208 -414 416 -715
698 -1006 168 -174 491 -434 666 -538 47 -27 121 -72 166 -99 253 -156 772
-349 1105 -413 416 -79 881 -92 1271 -35 421 61 801 178 1167 359 491 243 912
604 1291 1107 420 558 705 1278 765 1932 22 237 19 435 -10 683 -40 347 -108
622 -234 951 -52 134 -61 169 -39 156 6 -4 8 -3 5 3 -7 11 18 69 34 78 5 4 5
13 0 23 -5 9 -9 20 -10 25 -1 20 -39 90 -40 75 -1 -10 -5 -18 -10 -18 -6 0 -6
13 0 33 6 17 13 38 15 46 4 11 8 10 20 -5 15 -19 15 -19 10 1 -3 11 0 31 8 45
27 51 58 105 68 117 11 13 24 123 15 123 -4 0 -30 -35 -58 -77 -29 -43 -57
-80 -63 -82 -21 -8 -88 -86 -111 -131 -13 -25 -24 -38 -25 -30 -1 45 -190 358
-335 555 -63 86 -72 100 -57 91 8 -4 12 0 12 11 0 10 7 28 15 40 10 14 12 24
5 28 -6 4 -8 11 -4 16 3 5 -30 58 -74 117 -77 104 -97 138 -93 155 1 5 -3 6
-7 3 -5 -3 -17 3 -27 14 -10 11 -24 20 -30 20 -42 0 -36 69 15 171 16 33 24
59 18 59 -5 0 -8 7 -4 15 11 30 -10 14 -32 -25 -28 -49 -62 -72 -99 -68 -22 2
-28 8 -27 26 0 12 -3 22 -7 22 -4 0 -1 28 7 63 10 45 22 68 42 84 15 13 22 23
16 23 -5 0 -15 -5 -21 -11 -7 -7 -12 -2 -15 20 -3 17 -1 31 4 31 4 0 8 6 8 14
0 15 -42 26 -101 26 -22 0 -39 5 -39 10 0 6 -7 10 -15 10 -11 0 -14 7 -11 25
3 14 0 25 -5 25 -15 0 -103 -50 -111 -64 -6 -8 -8 -8 -8 1 0 7 14 28 31 48 20
23 29 42 26 55 -3 10 0 22 7 25 6 3 -13 3 -41 1 -38 -2 -53 1 -53 10 0 7 -5
14 -11 16 -7 2 -3 16 10 38 11 19 28 49 38 67 9 18 19 30 23 28 8 -5 6 32 -2
40 -3 3 -26 -17 -51 -44 -45 -48 -82 -112 -130 -226 -66 -157 -282 -583 -352
-695 -94 -150 -235 -338 -353 -474 -104 -119 -303 -304 -393 -365 -75 -51 -69
-44 21 31 114 93 269 232 265 237 -3 2 -14 -4 -25 -14 -24 -21 -27 -6 -6 33 7
15 23 46 35 70 12 23 19 42 15 42 -3 0 20 28 53 63 75 81 286 377 381 538 12
19 59 117 106 217 46 99 100 207 119 239 19 32 40 76 47 98 7 22 26 69 42 104
18 41 25 67 18 71 -6 4 4 44 29 109 21 57 41 99 44 95 2 -5 7 -30 11 -56 4
-25 13 -49 20 -51 17 -7 136 4 133 12 0 3 7 20 16 38 24 45 21 143 -4 127 -5
-3 -9 2 -9 10 0 13 -12 16 -59 16 -38 0 -61 -4 -64 -12 -4 -8 -6 -9 -6 -2 -1
14 64 195 83 232 13 26 30 93 43 171 5 29 3 33 -12 28 -9 -4 -20 -7 -25 -7 -4
0 -14 -33 -20 -72 -18 -106 -91 -326 -150 -453 -91 -193 -451 -917 -498 -1000
-99 -177 -258 -366 -462 -550 -61 -54 -241 -187 -247 -182 -2 3 35 40 84 83
164 148 221 214 369 434 170 252 273 434 372 660 33 74 99 216 147 315 48 99
100 212 115 250 15 39 49 117 74 174 26 58 44 112 41 122 -3 9 -1 20 4 24 7 3
8 0 5 -9 -3 -9 -2 -16 4 -16 12 0 16 16 37 150 15 98 5 149 -13 63z m-84 -308
c-6 -14 -13 -23 -15 -21 -5 5 15 46 22 46 3 0 -1 -11 -7 -25z m-35 -80 c-17
-50 -37 -72 -23 -27 9 32 28 72 35 72 2 0 -3 -20 -12 -45z m-2009 -191 c3 -8
2 -12 -4 -9 -6 3 -10 10 -10 16 0 14 7 11 14 -7z m-487 -16 c-3 -8 -6 -5 -6 6
-1 11 2 17 5 13 3 -3 4 -12 1 -19z m44 5 c8 -10 9 -14 2 -10 -7 4 -16 0 -22
-10 -6 -10 -11 -13 -11 -6 0 6 5 15 10 18 6 4 8 11 5 16 -10 15 2 10 16 -8z
m91 -26 c6 -13 6 -17 0 -13 -6 3 -13 0 -16 -6 -3 -7 -3 -2 0 11 5 18 3 22 -7
16 -8 -5 -11 -5 -7 0 4 4 2 15 -5 24 -11 14 -10 14 6 2 10 -8 23 -23 29 -34z
m375 21 c-3 -8 -6 -5 -6 6 -1 11 2 17 5 13 3 -3 4 -12 1 -19z m-424 -18 c-8
-29 -21 -25 -15 5 2 14 8 23 12 20 5 -3 6 -14 3 -25z m381 14 c3 -8 2 -12 -4
-9 -6 3 -10 10 -10 16 0 14 7 11 14 -7z m-307 -16 c-3 -8 -6 -5 -6 6 -1 11 2
17 5 13 3 -3 4 -12 1 -19z m-346 -13 c0 6 4 1 9 -10 8 -19 9 -19 9 3 1 12 6
22 11 22 12 0 12 0 -1 -39 -9 -24 -17 -31 -37 -31 -74 -1 -487 -112 -599 -161
-24 -11 -46 -19 -51 -19 -4 0 -59 -21 -122 -46 -141 -56 -354 -166 -421 -217
-28 -21 -83 -55 -123 -76 -97 -52 -114 -63 -246 -162 -118 -88 -347 -291 -357
-315 -7 -20 -27 -17 -48 6 -18 20 -18 21 8 46 15 14 27 20 27 14 0 -6 5 -8 11
-5 6 4 8 13 5 20 -7 19 172 188 191 181 8 -3 11 -2 8 3 -3 5 25 30 62 55 38
25 80 57 95 71 l27 25 15 -22 c9 -12 16 -17 16 -11 0 7 -4 15 -10 18 -13 8
-13 35 -1 35 5 0 11 -6 14 -12 2 -7 2 -3 1 9 -3 15 2 24 16 28 11 3 20 11 20
16 0 6 4 8 9 5 5 -4 11 -2 13 3 1 5 32 28 68 50 215 134 213 133 221 119 7
-10 9 -8 9 6 0 16 2 17 17 5 15 -12 16 -12 10 4 -8 22 21 36 35 16 6 -10 7 -7
3 10 -6 21 -4 23 14 18 12 -3 19 -1 15 4 -3 5 1 9 10 9 8 0 17 -6 20 -12 3 -7
4 -4 1 7 -7 29 47 53 73 33 15 -12 16 -11 3 4 -12 16 -10 19 11 27 13 5 68 30
123 57 55 26 108 47 118 46 9 0 17 3 17 7 0 4 6 8 13 8 6 0 53 15 102 33 50
17 95 32 100 34 6 1 21 6 34 10 16 6 26 4 32 -5 7 -11 9 -10 9 4 0 20 16 23
23 5 3 -8 6 -6 6 5 1 9 6 17 12 17 5 0 7 -4 4 -10 -10 -16 12 -11 30 7 14 14
18 14 26 2 7 -11 9 -11 9 4 0 19 20 24 21 5 0 -7 4 -4 9 7 8 18 9 18 10 -5 l2
-25 8 25 7 25 12 -25 11 -25 -3 26 c-2 16 1 26 10 26 7 0 13 -10 13 -21 1 -17
3 -15 15 9 11 24 14 26 14 10 1 -15 3 -17 10 -6 6 8 19 12 35 9 15 -3 29 -1
33 5 4 6 10 3 14 -9 7 -18 8 -18 8 0 1 15 4 16 16 6 12 -10 15 -9 15 6 0 16 2
17 10 4 5 -8 10 -10 11 -5z m68 -35 c0 -9 -4 -8 -9 5 -8 19 -9 19 -9 1 -1 -11
-3 -17 -6 -14 -4 3 -3 18 1 34 6 25 8 26 15 9 4 -11 8 -27 8 -35z m119 25 c-3
-3 -9 2 -12 12 -6 14 -5 15 5 6 7 -7 10 -15 7 -18z m-81 -7 c-3 -8 -6 -5 -6 6
-1 11 2 17 5 13 3 -3 4 -12 1 -19z m50 0 c-3 -8 -6 -5 -6 6 -1 11 2 17 5 13 3
-3 4 -12 1 -19z m-177 -104 c0 -8 -5 -12 -11 -8 -8 4 -9 -1 -4 -17 4 -13 12
-27 18 -31 13 -8 -98 -37 -163 -43 -9 0 -21 -4 -28 -9 -6 -4 -16 -5 -21 -1 -5
3 -12 1 -16 -5 -3 -5 -17 -10 -31 -10 -14 0 -46 -9 -72 -19 -26 -11 -105 -36
-177 -57 -71 -21 -191 -64 -265 -95 l-135 -57 -22 21 c-12 11 -20 24 -17 29 8
12 107 61 189 93 39 14 99 38 135 52 117 46 225 80 336 107 60 15 121 30 136
35 15 5 41 8 58 7 16 -1 30 1 30 5 0 4 12 10 28 12 15 2 28 5 30 6 1 0 2 -6 2
-15z m66 -26 c3 -4 -1 -5 -10 -4 -8 1 -18 5 -22 8 -3 4 1 5 10 4 8 -1 18 -5
22 -8z m1634 -38 c-11 -16 -25 -32 -29 -35 -5 -2 -28 -49 -51 -102 -177 -409
-256 -568 -322 -645 -26 -30 -115 -98 -129 -98 -25 0 10 80 134 306 44 82 91
196 142 349 14 42 -64 -58 -91 -118 -16 -34 -79 -161 -141 -282 -101 -198
-116 -224 -160 -257 -26 -21 -52 -38 -58 -38 -5 1 -1 7 10 16 35 26 105 94 97
94 -4 0 -13 -5 -18 -10 -6 -6 -21 -13 -35 -15 -13 -3 -26 -10 -28 -17 -8 -23
-84 -98 -99 -98 -11 0 -3 14 24 43 50 53 59 70 134 251 34 83 69 164 77 180
15 29 15 30 -2 16 -29 -24 -90 -122 -110 -175 -41 -112 -96 -179 -156 -190
-31 -6 -39 -3 -52 15 l-16 23 -23 -27 c-16 -19 -36 -29 -68 -33 -25 -3 -49 -9
-55 -13 -5 -4 -29 -11 -52 -15 -23 -3 -47 -13 -54 -21 -6 -8 -18 -14 -25 -14
-8 0 -19 -9 -26 -20 -7 -11 -19 -20 -26 -20 -8 0 -39 -14 -70 -32 -71 -39
-133 -70 -146 -72 -51 -10 -76 -19 -76 -28 0 -6 -3 -9 -6 -6 -5 6 -243 -108
-254 -121 -11 -13 -87 -50 -93 -45 -3 3 -8 0 -13 -7 -5 -8 -3 -10 7 -5 9 5 8
3 -2 -6 -8 -7 -19 -22 -23 -33 -6 -16 -9 -17 -16 -5 -5 8 -11 12 -14 9 -3 -2
-1 -11 3 -18 11 -17 54 -5 45 12 -5 9 -4 9 6 0 7 -6 19 -9 26 -6 26 10 44 -17
44 -67 0 -43 -2 -48 -20 -43 -11 3 -20 12 -20 21 0 13 -3 12 -14 -3 -8 -11
-12 -25 -9 -32 3 -7 -1 -13 -9 -13 -17 0 -358 -167 -379 -186 -9 -8 -21 -14
-26 -12 -11 3 -212 -173 -278 -243 l-40 -43 43 35 c24 19 59 45 77 59 88 67
114 88 160 129 86 76 387 206 653 282 77 22 72 11 -8 -15 -79 -27 -283 -113
-365 -154 -89 -44 -283 -174 -405 -272 -103 -82 -309 -272 -324 -298 -6 -9
-21 -28 -34 -42 l-25 -25 20 30 c37 56 35 60 -6 15 -81 -88 -194 -269 -275
-440 -47 -101 -168 -451 -209 -610 -30 -112 -43 -194 -57 -350 -14 -163 -31
-332 -35 -350 -15 -80 8 432 26 560 34 247 170 685 281 903 64 128 224 371
307 467 247 287 524 519 745 627 53 25 96 50 96 55 0 5 -5 6 -12 2 -7 -4 -8
-3 -4 4 4 7 1 12 -9 12 -9 0 -13 -4 -10 -10 3 -5 -1 -10 -9 -10 -25 0 -30 -1
-41 -10 -5 -4 -28 -13 -50 -20 -49 -15 -209 -99 -273 -143 -176 -121 -395
-321 -485 -440 -27 -35 -54 -51 -44 -24 2 6 10 11 16 10 10 -3 15 10 12 29 0
4 8 10 19 13 11 4 20 13 20 21 0 14 27 49 64 85 11 10 16 22 13 26 -9 9 22 43
40 43 8 0 11 5 7 12 -4 7 -3 8 5 4 7 -5 23 3 39 19 15 15 52 46 82 69 131 98
151 143 28 61 -118 -79 -331 -298 -310 -320 4 -3 0 -5 -8 -3 -9 2 -16 -6 -18
-20 -2 -13 -8 -20 -14 -16 -6 4 -8 2 -5 -3 4 -6 1 -13 -7 -16 -21 -8 -126
-150 -193 -262 -52 -88 -178 -343 -213 -432 -7 -18 -10 -44 -8 -58 3 -15 1
-22 -5 -18 -6 4 -8 -2 -5 -15 4 -12 3 -20 -2 -17 -17 11 -88 -248 -105 -385
-4 -31 -4 -32 5 -10 10 26 9 20 -6 -144 -6 -59 -9 -67 -19 -52 -21 27 -28
-182 -20 -559 8 -395 9 -505 5 -627 l-2 -93 -24 50 c-28 60 -32 100 -8 91 20
-8 16 30 -27 224 -28 128 -48 280 -66 505 l-8 100 -37 3 c-26 2 -38 8 -38 19
0 12 9 14 40 11 l40 -4 0 54 0 54 -34 -6 c-40 -8 -75 2 -54 15 7 5 27 9 43 9
17 0 35 4 40 8 6 4 23 104 38 222 41 334 105 585 217 850 62 147 69 160 198
360 229 355 565 661 907 828 103 50 324 135 493 188 164 52 303 111 425 181
371 213 715 433 876 561 30 24 82 57 115 74 36 18 100 67 154 117 86 80 159
141 169 141 2 0 -5 -13 -17 -30z m1166 -10 c-3 -11 -9 -29 -12 -40 -3 -12 -1
-20 6 -20 6 0 8 5 5 10 -3 6 5 10 18 10 22 0 24 -4 23 -32 -2 -26 -6 -32 -20
-30 -13 2 -17 -3 -16 -20 4 -39 1 -47 -21 -58 -25 -14 -49 2 -49 31 0 20 59
169 67 169 2 0 2 -9 -1 -20z m-2208 -101 l3 -57 -253 -4 c-252 -5 -254 -5
-443 -47 -310 -69 -484 -119 -607 -175 -96 -44 -108 -43 -147 10 -21 29 -30
49 -24 55 18 18 188 86 328 132 139 45 398 105 570 131 61 10 168 14 330 13
l240 -2 3 -56z m135 -26 c-7 -2 -21 -2 -30 0 -10 3 -4 5 12 5 17 0 24 -2 18
-5z m2262 -126 c48 -45 40 -58 -37 -61 -51 -1 -53 0 -56 28 -2 16 4 50 14 75
17 45 18 46 28 21 6 -14 29 -42 51 -63z m-189 36 c-20 -21 -36 -45 -36 -55 0
-27 19 -22 26 7 3 14 13 25 20 25 12 0 11 -5 -3 -27 -9 -16 -12 -23 -5 -18 6
6 18 24 26 40 9 17 16 23 16 14 0 -68 -364 -689 -498 -849 -146 -174 -268
-307 -297 -322 -18 -10 -19 -10 -6 8 8 10 -3 0 -25 -23 -43 -47 -211 -186
-277 -231 -48 -33 -84 -52 -47 -25 81 59 171 136 198 170 18 21 76 92 130 158
281 345 464 615 597 880 52 103 96 179 103 178 6 -2 12 2 12 7 0 12 84 100 95
100 4 0 -9 -17 -29 -37z m-3820 -52 c74 -34 144 -144 144 -227 0 -42 -41 -133
-70 -158 -65 -54 -165 -59 -256 -13 -59 30 -76 48 -103 107 -39 85 -17 176 57
241 76 67 153 84 228 50z m1268 -77 c3 -8 6 -76 7 -150 1 -115 3 -134 16 -130
8 3 71 6 139 6 l124 0 0 49 c0 61 28 223 40 235 17 17 13 -60 -14 -261 l-5
-33 49 0 c29 0 54 6 63 14 8 8 21 62 30 121 9 59 21 114 27 123 15 26 12 -79
-4 -163 -8 -38 -12 -73 -10 -76 8 -15 -28 -31 -88 -39 -35 -5 -146 -11 -248
-14 -154 -3 -213 -9 -350 -35 -208 -40 -253 -51 -425 -107 -133 -43 -469 -196
-507 -231 -10 -9 -15 -20 -11 -26 3 -5 1 -7 -5 -3 -12 7 -59 -19 -157 -88
-281 -198 -562 -500 -695 -748 l-42 -78 31 -26 c37 -30 38 -42 10 -78 -23 -29
-62 -34 -93 -11 -29 22 -33 19 -39 -27 -3 -24 -20 -76 -36 -117 -48 -114 -106
-328 -153 -562 l-43 -214 1 -250 c1 -226 4 -263 27 -383 14 -73 23 -140 20
-149 -4 -10 -2 -14 4 -10 6 4 13 -3 16 -16 2 -12 23 -91 46 -176 22 -85 39
-156 37 -158 -4 -4 -46 123 -46 138 0 6 -11 35 -25 65 -14 30 -25 65 -25 77
-1 12 -7 40 -16 62 -30 84 -55 223 -66 375 l-11 158 -149 7 c-81 4 -148 11
-148 16 0 5 67 9 148 9 l149 0 6 128 c9 176 38 358 92 563 63 243 89 326 125
405 22 48 29 76 24 97 -3 15 -1 34 5 41 8 10 -6 20 -62 44 -39 18 -85 43 -102
57 -27 22 -28 24 -9 25 23 0 97 -36 156 -77 20 -13 44 -23 54 -21 10 1 31 30
48 63 37 71 176 281 220 332 17 20 64 75 105 121 l75 85 -35 29 c-73 64 -129
119 -139 139 -20 36 18 8 107 -81 l83 -81 95 87 c52 49 95 89 95 91 0 5 -33
43 -97 115 -58 64 -77 98 -54 98 14 0 109 -109 138 -157 14 -24 27 -43 30 -43
6 0 49 29 176 118 48 34 90 62 92 62 3 0 33 17 67 38 35 20 96 53 135 72 83
40 83 43 27 122 -26 37 -54 122 -54 166 0 3 12 -13 27 -34 40 -59 83 -156 83
-186 0 -16 2 -28 4 -28 2 0 33 14 69 31 l66 30 -35 82 c-39 91 -68 200 -52
195 13 -5 75 -147 89 -206 7 -26 15 -50 18 -55 7 -7 95 16 118 31 8 5 1 39
-28 125 -50 147 -49 196 3 87 20 -41 41 -100 49 -130 7 -30 16 -59 20 -63 6
-8 129 21 129 30 0 3 -16 57 -35 120 -35 117 -43 163 -26 163 17 0 87 -253 75
-272 -3 -4 -1 -8 5 -8 9 0 114 22 119 25 1 1 -7 47 -19 103 -11 56 -19 118
-17 139 l3 38 18 -37 c9 -20 25 -82 34 -138 l17 -102 29 6 c16 3 39 6 51 6 45
0 49 12 33 86 -22 98 -31 210 -18 218 17 11 51 -140 51 -230 0 -52 1 -54 28
-54 15 0 43 3 63 6 l36 6 -5 149 c-3 99 -1 149 6 149 5 0 13 -7 16 -16z m168
-87 c-2 -104 -10 -165 -22 -172 -4 -3 -10 1 -13 9 -7 18 9 242 18 257 14 22
19 -4 17 -94z m-1762 -41 c0 -30 -6 -37 -44 -60 -47 -28 -292 -214 -366 -278
-101 -88 -328 -349 -413 -472 -25 -38 -27 -39 -25 -14 1 15 6 24 10 22 4 -3 8
0 8 5 0 6 -13 11 -29 11 -21 0 -32 -6 -36 -20 -3 -11 -11 -20 -16 -20 -5 0 -9
-7 -9 -15 0 -8 -5 -15 -11 -15 -6 0 -3 13 8 30 29 46 152 198 209 260 29 30
70 78 91 105 46 57 83 93 83 79 0 -6 -6 -16 -12 -24 -7 -8 -2 -6 11 5 l24 20
-8 -24 c-5 -16 -4 -21 4 -17 6 4 11 14 11 22 0 8 3 13 8 10 8 -5 31 11 49 35
10 13 10 16 -2 16 -8 0 -12 -3 -10 -7 2 -3 -9 -14 -25 -23 -43 -26 -49 -2 -9
40 39 40 153 133 164 133 4 0 28 20 54 44 58 56 144 118 217 156 31 17 58 30
60 30 2 0 4 -15 4 -34z m4251 11 c-10 -9 -11 -8 -5 6 3 10 9 15 12 12 3 -3 0
-11 -7 -18z m-92 -19 c-9 -32 0 -47 28 -48 7 0 10 -7 7 -15 -13 -32 8 -13 22
21 8 20 18 34 21 30 19 -19 -252 -461 -384 -626 -118 -147 -291 -322 -348
-352 -20 -11 -20 -11 0 13 l20 24 -28 -24 c-15 -14 -27 -30 -27 -38 0 -7 -4
-13 -10 -13 -5 0 -24 -13 -42 -28 -18 -16 -69 -53 -113 -83 -130 -90 -140 -89
-20 1 87 64 188 174 386 420 180 223 368 500 446 657 26 51 48 93 49 93 1 0
-2 -14 -7 -32z m-4122 -145 c18 -30 30 -59 27 -65 -3 -5 -68 -55 -143 -112
-152 -115 -281 -234 -281 -260 0 -10 -4 -15 -9 -12 -8 5 -39 -23 -33 -31 5 -7
2 -23 -5 -22 -22 4 -33 -3 -33 -19 0 -11 -26 -47 -59 -82 -32 -34 -59 -64 -60
-66 0 -2 -3 -4 -6 -4 -33 -1 -317 -418 -439 -645 l-38 -71 52 -81 c45 -72 53
-91 57 -147 8 -100 -31 -196 -81 -196 -12 0 -30 -7 -40 -15 -10 -8 -23 -12
-28 -9 -5 3 -15 1 -22 -6 -8 -6 -58 -12 -116 -13 l-101 -2 -42 46 c-23 26 -47
53 -53 61 -5 7 -10 45 -9 83 1 80 30 156 83 217 27 30 44 38 112 54 44 10 80
22 80 27 0 19 143 290 223 424 148 245 372 532 519 665 81 74 399 336 408 337
3 0 20 -25 37 -56z m4258 -39 c19 -9 27 -8 40 5 9 9 4 -5 -12 -32 -15 -26 -30
-42 -32 -35 -2 7 1 14 8 16 6 2 8 8 5 14 -3 5 -13 0 -21 -12 -10 -15 -12 -25
-4 -33 7 -9 -8 -40 -57 -112 -37 -55 -80 -122 -95 -148 -72 -123 -297 -388
-381 -449 -23 -16 -50 -27 -65 -26 -29 2 -61 -13 -81 -36 -7 -9 -17 -16 -24
-16 -6 0 26 37 70 83 194 199 305 337 451 562 60 94 123 194 139 223 24 43 30
49 32 30 2 -13 14 -28 27 -34z m79 -120 c-55 -83 -77 -144 -67 -185 3 -10 10
-16 16 -12 14 8 3 -8 -58 -92 -28 -38 -78 -108 -111 -154 -65 -93 -183 -218
-283 -300 -57 -47 -68 -52 -98 -46 -25 4 -33 2 -33 -8 0 -14 -67 -53 -76 -45
-2 3 34 37 79 76 85 74 249 250 333 357 48 62 240 351 309 465 27 43 41 59 43
48 2 -10 -22 -56 -54 -104z m-3893 -24 c36 -58 54 -130 29 -115 -13 8 -57 95
-76 148 -20 58 2 42 47 -33z m1250 7 c-8 -8 -11 0 -10 29 1 39 1 39 11 11 7
-21 7 -32 -1 -40z m-376 -32 c14 -32 31 -55 40 -55 8 0 15 -4 15 -10 0 -5 -5
-10 -12 -10 -6 0 -20 -8 -30 -17 -11 -10 -22 -13 -28 -7 -10 11 -25 154 -16
154 4 0 18 -25 31 -55z m-145 1 c0 -7 8 -24 19 -37 10 -13 22 -43 25 -66 7
-36 5 -43 -14 -53 -18 -10 -25 -9 -37 2 -18 19 -6 48 21 49 19 1 19 2 -3 8
-28 8 -44 51 -35 94 5 26 24 29 24 3z m-899 -38 c42 -57 75 -126 65 -135 -11
-11 -51 40 -87 109 -32 64 -33 68 -19 68 5 0 24 -19 41 -42z m-992 0 c20 -21
20 -38 0 -38 -6 0 -8 4 -4 9 3 5 1 12 -4 15 -5 3 -12 -6 -15 -19 -4 -15 -11
-23 -17 -19 -8 4 -7 9 1 14 7 4 13 19 13 34 0 32 1 32 26 4z m-42 -13 c0 -8
-4 -15 -9 -15 -10 0 -11 14 -1 23 9 10 10 9 10 -8z m883 -45 c39 -57 90 -151
90 -164 0 -29 -88 82 -129 161 -42 85 -18 86 39 3z m942 -22 c17 -2 22 -8 20
-23 -5 -26 -23 -37 -39 -23 -7 6 -13 7 -14 2 -1 -16 -28 90 -28 111 0 12 7 3
18 -22 14 -29 26 -42 43 -45z m-1838 12 c9 -19 11 -29 4 -22 -14 14 -32 16
-23 3 3 -5 0 -13 -6 -17 -8 -5 -9 -3 -4 7 5 8 5 11 0 7 -4 -4 -13 -18 -20 -30
-6 -13 -17 -22 -25 -20 -7 2 -10 -3 -7 -12 5 -13 3 -14 -13 -3 -18 11 -19 12
-2 19 10 4 12 7 3 7 -11 1 -11 4 -1 16 14 17 30 20 30 4 0 -5 -4 -7 -10 -4 -5
3 -10 2 -10 -4 0 -5 4 -12 9 -15 13 -8 23 23 15 47 -5 16 -3 19 12 13 10 -4
15 -4 12 0 -4 4 -3 15 3 26 12 23 11 24 33 -22z m1494 -70 c12 -22 29 -40 37
-40 16 0 19 -20 9 -57 -9 -34 -40 -28 -59 10 -19 37 -32 127 -19 127 5 0 19
-18 32 -40z m116 -37 c-26 -19 -50 -18 -34 2 7 9 10 26 6 42 l-6 28 26 -29
c25 -28 25 -30 8 -43z m1490 -34 c-44 -89 -195 -311 -269 -399 -31 -36 -60
-71 -66 -78 -5 -7 -7 -17 -4 -22 3 -6 -1 -7 -9 -4 -9 3 -16 1 -16 -5 0 -6 -9
-11 -19 -11 -11 0 -23 -4 -26 -10 -3 -5 -15 -10 -26 -10 -11 0 -18 -3 -16 -7
3 -5 112 -6 244 -3 131 3 261 2 288 -2 300 -40 436 -68 461 -93 9 -8 20 -12
26 -9 6 4 8 3 5 -3 -9 -14 27 -30 95 -43 32 -6 60 -15 63 -20 7 -12 -68 -2
-118 15 -22 8 -45 11 -50 8 -6 -3 -7 -1 -3 6 6 9 -14 12 -81 11 -48 0 -111 0
-139 1 -51 1 -115 -26 -97 -41 4 -4 58 -19 118 -34 254 -64 615 -205 615 -241
0 -24 65 -52 137 -57 7 -1 10 -5 7 -10 -3 -4 0 -8 7 -8 6 0 49 -17 94 -37 81
-38 82 -39 104 -95 13 -33 30 -60 40 -63 31 -10 56 -44 43 -57 -16 -16 -15
-28 2 -28 7 0 19 -7 26 -15 10 -12 10 -15 -2 -15 -19 0 -110 61 -205 137 -40
32 -108 85 -150 117 -43 33 -81 65 -85 70 -4 6 -8 8 -8 4 0 -12 -85 37 -133
76 -66 54 -245 113 -262 87 -3 -6 1 -11 9 -11 11 0 16 -9 16 -26 0 -23 -3 -26
-27 -20 -37 8 44 -32 177 -87 58 -24 125 -47 149 -50 25 -3 48 -12 53 -21 5
-9 13 -14 19 -11 5 4 9 -1 9 -9 0 -9 -5 -16 -11 -16 -5 0 -7 -4 -4 -10 9 -15
1 -13 -79 25 -41 19 -78 35 -81 35 -3 0 -28 11 -57 25 -28 14 -59 25 -68 25
-9 0 -20 4 -26 9 -33 29 -387 87 -619 101 -351 20 -488 10 -790 -56 -261 -58
-481 -147 -730 -294 -368 -217 -620 -452 -846 -790 -135 -200 -265 -479 -293
-627 -8 -43 -19 -90 -25 -105 -5 -14 -10 -35 -9 -45 0 -10 -3 -27 -6 -38 l-8
-20 13 20 c7 11 25 52 40 90 71 185 165 375 262 535 80 131 273 377 376 480
150 150 380 342 424 356 12 3 29 12 37 19 8 7 45 29 83 49 37 19 66 37 65 38
-2 2 7 16 20 32 12 16 22 39 22 52 0 18 4 22 17 17 10 -4 14 -2 10 4 -6 9 116
83 146 89 46 10 61 15 73 25 10 8 22 8 44 1 25 -9 30 -8 30 4 0 8 5 12 10 9 6
-4 8 -11 5 -16 -4 -5 4 -9 17 -9 13 0 28 -4 34 -9 5 -6 25 -7 49 -1 82 17 157
22 149 9 -5 -9 1 -10 27 -5 72 14 340 28 445 23 213 -10 681 -103 839 -167 73
-29 257 -110 311 -137 17 -8 114 -48 215 -88 101 -41 178 -74 171 -74 -34 -2
-286 90 -457 166 -256 114 -347 142 -645 204 l-255 53 -265 1 -265 0 -154 -38
c-231 -56 -449 -135 -579 -209 -31 -18 -70 -40 -87 -48 -60 -30 -166 -101
-171 -115 -4 -8 -11 -15 -16 -15 -39 0 -376 -301 -462 -412 -31 -40 -84 -107
-119 -148 -89 -107 -225 -326 -281 -455 -26 -60 -65 -148 -86 -195 -21 -47
-42 -97 -45 -112 -4 -16 -10 -28 -15 -28 -12 0 -39 -71 -54 -140 -8 -36 -30
-127 -50 -203 -40 -158 -56 -256 -57 -365 l-1 -77 -13 60 c-13 59 -11 112 5
150 5 11 11 38 14 60 10 79 57 331 76 405 10 41 24 120 30 175 23 205 80 421
170 646 72 180 90 217 168 340 64 102 85 139 79 139 -6 0 -126 -182 -161 -242
-15 -27 -29 -48 -32 -48 -3 0 -2 5 2 12 5 7 3 8 -5 4 -7 -5 -10 -14 -7 -22 3
-8 1 -14 -5 -14 -6 0 -9 -6 -6 -12 2 -7 -9 -39 -24 -70 -16 -32 -29 -64 -29
-72 0 -7 -6 -16 -14 -19 -11 -4 -13 0 -9 16 13 55 21 102 18 105 -7 7 -44 -91
-68 -178 -52 -190 -55 -199 -56 -163 -1 45 93 408 136 523 78 208 240 494 384
677 27 35 46 63 42 63 -5 0 3 6 16 13 14 6 26 19 28 27 4 13 3 13 -6 0 -5 -8
-12 -12 -15 -9 -3 3 33 45 80 94 46 50 82 95 80 101 -5 13 34 52 104 104 25
19 47 37 50 40 3 3 30 21 60 39 30 19 71 44 90 56 19 12 47 29 63 39 22 13 25
20 18 35 -8 15 -3 22 29 40 22 12 40 20 40 17 0 -3 -13 -12 -30 -21 -26 -13
-42 -45 -24 -45 8 0 122 60 254 132 57 32 112 58 121 58 9 0 27 8 40 19 37 28
54 16 27 -21 l-21 -31 29 19 c43 27 74 55 96 89 l20 30 -6 -28 c-14 -63 70
-36 90 29 l12 39 -2 -60 c-1 -52 1 -60 19 -63 20 -4 20 -4 0 11 -19 15 -18 15
17 22 31 6 38 12 43 39 12 56 15 63 40 74 l24 11 -25 -36 c-16 -24 -24 -50
-24 -77 0 -23 4 -36 8 -31 4 6 14 10 22 10 8 0 29 25 47 55 39 68 71 110 84
110 6 0 -1 -15 -14 -32 -30 -42 -73 -117 -81 -145 -21 -67 101 49 178 170 40
62 72 80 35 20 -54 -89 -99 -151 -142 -193 -51 -49 -55 -64 -8 -30 17 11 35
18 41 15 20 -13 72 39 139 138 38 56 83 112 100 125 l32 23 -36 -70 c-19 -39
-37 -71 -40 -71 -7 0 14 52 27 67 6 8 8 16 5 19 -3 3 -24 -27 -48 -68 -55 -96
-100 -151 -153 -188 -24 -16 -46 -37 -50 -46 -8 -20 -2 -16 88 60 67 57 61 31
-8 -32 -53 -48 -51 -52 8 -17 84 49 149 125 241 280 47 81 82 125 97 125 13 0
-5 -30 -99 -171 -89 -134 -122 -173 -192 -230 l-44 -36 59 9 c32 5 69 15 80
23 31 20 102 111 190 245 42 63 93 140 114 170 20 30 45 71 55 90 9 19 25 43
33 53 30 34 23 -1 -14 -74z m-3134 57 c0 -3 -4 -8 -10 -11 -5 -3 -10 -1 -10 4
0 6 5 11 10 11 6 0 10 -2 10 -4z m1390 -48 c19 -29 45 -63 58 -76 28 -31 28
-48 1 -63 -22 -12 -39 0 -39 29 0 7 -16 44 -35 82 -19 38 -35 72 -35 75 0 16
19 -2 50 -47z m-1452 13 c2 -15 0 -21 -7 -16 -6 3 -9 10 -6 15 3 5 1 12 -5 15
-6 4 -10 3 -9 -2 3 -13 -13 -45 -44 -88 -22 -30 -27 -34 -22 -15 7 22 6 23 -9
11 -9 -8 -14 -21 -11 -32 4 -11 -1 -21 -12 -28 -10 -5 -15 -13 -11 -16 4 -4 0
-14 -8 -23 -14 -13 -17 -13 -25 -1 -5 8 -8 19 -8 24 0 6 3 4 6 -2 5 -14 24
-18 22 -5 -5 28 2 44 17 38 12 -5 15 -2 10 10 -7 19 39 85 57 81 7 -1 11 6 9
17 -2 10 1 15 6 12 5 -3 12 4 15 15 7 27 31 20 35 -10z m1826 16 c-6 -17 -44
-40 -44 -27 0 6 -17 8 -42 5 l-43 -5 55 19 c67 23 81 25 74 8z m3375 -33 c-12
-22 -29 -47 -37 -56 -8 -10 -14 -29 -14 -42 0 -14 -4 -23 -9 -20 -5 3 -6 -2
-3 -10 7 -19 24 -21 24 -4 0 6 3 9 6 5 22 -21 -319 -438 -345 -422 -5 3 -12 2
-15 -3 -3 -5 -18 -7 -33 -5 -21 3 -44 -7 -88 -37 -51 -35 -39 -21 81 97 136
133 283 307 374 443 49 73 71 102 77 96 2 -2 -6 -21 -18 -42z m-4369 -186 c0
-28 -12 -22 -71 40 -123 126 -135 179 -14 61 47 -46 85 -91 85 -101z m-840
164 c0 -5 -14 -21 -31 -38 l-31 -29 24 37 c22 35 38 48 38 30z m3282 -58 c-10
-27 -56 -98 -103 -157 -91 -117 -254 -295 -263 -286 -3 3 25 36 62 74 70 71
161 190 259 337 32 47 59 85 61 83 2 -1 -6 -24 -16 -51z m-1898 -35 c30 -35
31 -62 3 -67 -32 -6 -57 27 -82 106 -7 23 -6 23 23 8 16 -8 42 -30 56 -47z
m3897 18 c-10 -9 -11 -8 -5 6 3 10 9 15 12 12 3 -3 0 -11 -7 -18z m-86 -15
c-3 -3 -11 0 -18 7 -9 10 -8 11 6 5 10 -3 15 -9 12 -12z m72 -34 c-3 -7 -5 -2
-5 12 0 14 2 19 5 13 2 -7 2 -19 0 -25z m-4015 -35 c50 -49 49 -93 -3 -93 -9
0 -59 103 -59 121 0 19 26 7 62 -28z m-1422 0 c-1 -15 -27 -43 -33 -36 -12 11
-8 25 5 17 8 -5 9 -2 5 9 -4 11 -1 17 8 17 8 0 15 -3 15 -7z m5400 -11 c0 -13
-103 -166 -164 -241 -70 -88 -152 -171 -226 -231 -38 -30 -18 -6 65 80 119
123 230 259 288 353 30 46 37 54 37 39z m-2530 -16 c0 -2 -7 -7 -16 -10 -8 -3
-12 -2 -9 4 6 10 25 14 25 6z m-2926 -77 c-24 -44 -28 -47 -40 -31 -7 9 -10
19 -8 22 3 2 9 -2 14 -10 7 -11 10 -12 10 -2 0 7 7 20 15 29 9 9 13 23 10 34
-5 14 -2 17 9 13 14 -5 12 -13 -10 -55z m1346 -3 c38 -46 50 -79 31 -90 -4 -3
-29 15 -54 39 -37 37 -45 51 -44 79 1 43 13 38 67 -28z m4156 28 c-10 -14 -20
-23 -23 -21 -2 3 3 17 13 31 9 15 19 24 22 22 2 -3 -3 -17 -12 -32z m-1616 1
c0 -8 -4 -15 -10 -15 -5 0 -10 7 -10 15 0 8 5 15 10 15 6 0 10 -7 10 -15z
m-3133 -41 c68 -51 103 -86 103 -101 0 -7 -3 -13 -8 -13 -12 0 -143 107 -159
130 -23 33 8 25 64 -16z m4796 -15 c-9 -24 -25 -53 -35 -64 -12 -12 -7 5 14
47 36 75 48 84 21 17z m-1699 25 c3 -8 2 -12 -4 -9 -6 3 -10 10 -10 16 0 14 7
11 14 -7z m-1569 -13 c3 -5 2 -12 -3 -15 -5 -3 -9 1 -9 9 0 17 3 19 12 6z
m345 5 c0 -2 -7 -7 -16 -10 -8 -3 -12 -2 -9 4 6 10 25 14 25 6z m-1330 -162
c0 -14 -11 -7 -46 26 -44 43 -94 111 -94 127 1 17 140 -136 140 -153z m-1137
119 c-10 -16 -28 -39 -42 -53 l-23 -25 17 27 c9 15 13 33 9 39 -4 8 -3 9 4 5
7 -4 12 -1 12 9 0 9 5 13 10 10 6 -3 10 -1 10 4 0 6 5 11 10 11 6 0 3 -12 -7
-27z m-200 -20 c-8 -19 -21 -16 -34 10 -9 18 -9 20 2 10 19 -18 29 -16 23 5
-5 13 -4 14 4 3 6 -8 8 -20 5 -28z m5841 -63 c58 -80 199 -370 180 -370 -3 0
-36 65 -73 144 -38 79 -91 177 -118 217 -62 93 -68 104 -57 96 6 -3 36 -42 68
-87z m-1704 67 c-73 -65 -161 -137 -145 -118 21 26 145 131 154 131 3 0 -1 -6
-9 -13z m-4160 -38 c0 -6 -4 -7 -10 -4 -5 3 -10 11 -10 16 0 6 5 7 10 4 6 -3
10 -11 10 -16z m-43 -3 c-4 -10 -1 -13 7 -10 8 3 17 1 21 -5 4 -7 -4 -11 -19
-11 -14 0 -26 2 -26 4 0 10 13 36 17 36 3 0 3 -7 0 -14z m1228 -48 c16 -15 44
-35 62 -45 18 -10 33 -20 33 -24 0 -3 -18 -20 -41 -39 -22 -18 -45 -46 -51
-62 -12 -33 -28 -32 -44 1 -6 12 -24 35 -40 52 -15 16 -23 29 -18 29 6 0 23
-13 39 -30 36 -38 50 -38 86 2 l30 31 -33 36 c-94 101 -103 122 -23 49z m-467
1 c59 -38 101 -83 90 -95 -6 -5 -109 63 -158 105 -54 47 -9 40 68 -10z m-577
-20 c-12 -19 -21 -30 -21 -26 0 14 31 69 36 64 3 -3 -4 -20 -15 -38z m-181 11
c0 -5 -4 -10 -10 -10 -5 0 -10 5 -10 10 0 6 5 10 10 10 6 0 10 -4 10 -10z
m6464 -62 c-1 -43 -11 -72 -52 -150 -28 -53 -58 -122 -66 -154 -17 -65 -36
-93 -36 -53 0 14 -6 34 -14 45 -16 21 -14 24 -37 -51 -65 -214 -323 -467 -631
-619 -117 -58 -274 -113 -286 -102 -2 3 16 10 39 16 123 30 301 120 431 218
104 78 279 242 302 283 18 32 16 31 -31 -14 -46 -44 -55 -49 -109 -53 -36 -3
-75 -14 -103 -29 -24 -14 -62 -28 -85 -32 -23 -3 -58 -14 -78 -24 -60 -31 -56
-22 8 17 86 51 234 166 324 251 74 69 78 76 69 101 l-9 27 18 -23 18 -23 58
61 c31 34 66 79 77 99 11 21 36 56 55 77 27 29 32 32 20 12 -9 -16 -13 -28 -9
-28 5 0 26 32 48 72 50 88 74 128 78 128 1 0 2 -24 1 -52z m-2824 17 c-13 -14
-28 -25 -34 -25 -6 0 3 11 19 25 39 31 45 32 15 0z m-3673 -21 c-3 -3 -12 -4
-19 -1 -8 3 -5 6 6 6 11 1 17 -2 13 -5z m-22 -14 c19 -8 19 -9 -2 -9 -12 -1
-25 4 -28 9 -7 12 2 12 30 0z m5701 -85 c-19 -41 -45 -88 -57 -103 -12 -15
-20 -22 -17 -17 36 82 104 213 106 206 2 -6 -13 -44 -32 -86z m-5002 51 c57
-32 92 -62 111 -94 6 -12 3 -12 -16 -2 -41 20 -179 115 -179 123 0 14 24 7 84
-27z m-730 8 c25 -9 19 -24 -9 -24 -24 0 -32 10 -18 23 8 8 8 8 27 1z m1966
-7 c0 -2 -12 -14 -27 -28 l-28 -24 24 28 c23 25 31 32 31 24z m2730 -11 c0 -2
-7 -7 -16 -10 -8 -3 -12 -2 -9 4 6 10 25 14 25 6z m-3527 -38 c18 -12 42 -30
54 -41 l23 -20 -27 -48 c-35 -64 -65 -85 -103 -69 -16 7 -44 28 -64 47 -37 37
-37 46 -3 98 41 61 69 69 120 33z m-1196 5 c-11 -3 -16 -11 -13 -19 3 -8 -1
-14 -9 -14 -17 0 -17 2 -9 24 3 9 16 15 28 15 18 -1 18 -2 3 -6z m6297 -10 c5
-11 -2 -24 -21 -39 -34 -29 -40 -29 -53 -5 -15 28 -13 37 13 49 33 16 54 14
61 -5z m-4222 -35 c-7 -7 -12 -8 -12 -2 0 14 12 26 19 19 2 -3 -1 -11 -7 -17z
m-2088 -14 c6 -15 4 -15 -11 -3 -10 7 -20 15 -22 16 -2 2 3 3 11 3 9 0 19 -7
22 -16z m5426 -89 c-49 -49 -116 -106 -147 -128 l-58 -39 45 38 c24 22 90 80
144 131 55 51 102 91 103 89 2 -2 -37 -43 -87 -91z m-5443 57 c-9 -2 -14 -8
-11 -14 4 -7 2 -8 -5 -4 -6 4 -9 12 -6 17 4 5 1 9 -5 9 -6 0 -8 5 -5 10 4 7
14 6 28 -2 19 -11 20 -13 4 -16z m724 -13 c62 -39 89 -64 89 -81 0 -4 -5 -8
-11 -8 -15 0 -155 89 -176 112 -31 35 30 21 98 -23z m4089 16 c-30 -18 -151
-57 -157 -51 -2 2 24 13 59 25 35 12 70 26 78 31 8 5 22 10 30 9 9 0 5 -6 -10
-14z m200 -20 c-16 -20 -101 -75 -114 -75 -6 1 5 9 24 20 19 10 49 30 65 44
34 29 43 33 25 11z m-5036 -24 c-3 -3 -10 -7 -15 -7 -5 -1 -12 -2 -16 -3 -3 0
4 -12 16 -25 19 -20 20 -24 6 -30 -9 -3 -13 -11 -9 -17 4 -8 3 -9 -5 -5 -9 6
-9 11 0 22 9 12 9 17 -5 27 -14 10 -15 16 -4 39 10 20 16 24 26 16 7 -6 10
-14 6 -17z m1546 -16 c-7 -9 -15 -13 -17 -11 -7 7 7 26 19 26 6 0 6 -6 -2 -15z
m3357 -41 c-3 -3 -12 -4 -19 -1 -8 3 -5 6 6 6 11 1 17 -2 13 -5z m-44 -11 c-7
-2 -19 -2 -25 0 -7 3 -2 5 12 5 14 0 19 -2 13 -5z m-4930 -48 c-7 -21 -13 -19
-13 6 0 11 4 18 10 14 5 -3 7 -12 3 -20z m57 4 c0 -4 -7 -5 -17 -2 -12 5 -14
3 -8 -7 5 -8 4 -11 -3 -6 -16 9 -3 36 14 29 8 -3 14 -9 14 -14z m1118 -19 c34
-22 62 -46 62 -55 0 -20 -5 -19 -38 4 -15 11 -46 31 -69 45 -43 26 -55 46 -30
46 8 0 42 -18 75 -40z m-1183 -30 c17 -19 17 -19 -8 -7 -14 6 -23 15 -21 19 7
11 9 10 29 -12z m5321 -35 c-11 -8 -25 -15 -30 -15 -6 1 0 7 14 15 32 19 40
18 16 0z m-4628 -30 c83 -26 124 -57 104 -77 -8 -8 -36 0 -109 31 -161 71
-158 98 5 46z m4198 -9 c10 -8 16 -17 12 -21 -3 -4 -16 3 -27 14 -24 24 -15
28 15 7z m-4919 -42 c-3 -3 -12 -4 -19 -1 -8 3 -5 6 6 6 11 1 17 -2 13 -5z
m1106 -33 c6 -25 -3 -38 -28 -41 -61 -7 -72 14 -30 56 28 28 48 22 58 -15z
m3631 3 c20 -8 11 -24 -14 -24 -13 0 -17 5 -14 15 7 17 7 17 28 9z m-4017 -77
c33 -18 51 -47 28 -47 -15 0 -148 46 -177 61 -10 5 -15 16 -12 23 5 12 16 11
68 -4 34 -9 76 -25 93 -33z m4328 43 c3 -5 1 -10 -4 -10 -6 0 -11 5 -11 10 0
6 2 10 4 10 3 0 8 -4 11 -10z m-2248 -6 c-3 -3 -12 -4 -19 -1 -8 3 -5 6 6 6
11 1 17 -2 13 -5z m-2847 -50 c0 -2 -7 -4 -15 -4 -8 0 -15 4 -15 10 0 5 7 7
15 4 8 -4 15 -8 15 -10z m1044 -3 c10 -11 23 -18 29 -15 20 7 77 -34 77 -56 0
-34 -32 -23 -88 29 -29 27 -52 52 -52 55 0 12 17 5 34 -13z m-1067 -57 c-3 -3
-12 -4 -19 -1 -8 3 -5 6 6 6 11 1 17 -2 13 -5z m704 -39 c92 -28 144 -62 78
-52 -36 5 -193 74 -173 76 6 1 48 -10 95 -24z m-734 -3 c-9 -2 -14 -8 -11 -14
4 -7 2 -8 -5 -4 -9 6 -9 11 0 22 6 7 16 11 23 7 7 -5 5 -9 -7 -11z m48 8 c3
-5 -1 -10 -9 -10 -9 0 -16 5 -16 10 0 6 4 10 9 10 6 0 13 -4 16 -10z m6504
-63 c-9 -32 -66 -134 -79 -142 -6 -3 -7 1 -3 10 3 9 6 24 7 33 1 10 17 50 36
91 26 56 36 69 41 55 3 -11 3 -31 -2 -47z m-5519 17 c0 -3 -9 -41 -20 -84 -22
-84 -50 -226 -50 -249 0 -29 40 22 45 58 16 101 70 244 99 263 6 4 25 8 43 8
l32 0 -20 -34 c-26 -44 -101 -270 -124 -371 -9 -44 -23 -92 -31 -107 -8 -16
-16 -78 -19 -164 -4 -97 -10 -143 -20 -154 -18 -20 -32 -76 -16 -66 16 10 15
-39 -1 -52 -24 -19 -52 -18 -56 3 -3 11 -9 24 -16 28 -8 6 -8 10 2 14 15 6 16
75 1 90 -8 8 -9 35 -4 83 6 58 11 73 25 77 15 4 17 12 13 39 -5 32 14 148 36
217 7 21 6 27 -5 27 -7 0 -16 -10 -19 -22 -2 -13 -11 -54 -20 -91 -8 -38 -15
-81 -15 -98 0 -30 -17 -40 -26 -14 -4 8 -10 12 -15 9 -5 -3 -9 2 -9 10 0 9 5
15 11 14 16 -4 25 34 33 138 8 98 41 241 60 264 7 8 26 50 41 93 15 42 32 77
36 77 5 0 9 -3 9 -6z m2800 -45 c362 -119 623 -390 701 -729 13 -54 41 -255
40 -290 0 -26 -12 -112 -31 -218 -6 -34 -27 -113 -46 -175 -20 -62 -36 -121
-37 -132 -1 -32 -94 -163 -171 -243 -156 -162 -316 -266 -506 -328 -80 -26
-99 -28 -296 -32 -171 -3 -220 -1 -263 12 -30 9 -57 13 -62 10 -5 -3 -9 -1 -9
4 0 5 -15 13 -32 19 -99 33 -272 115 -309 147 -24 20 -48 36 -54 36 -7 0 -24
18 -39 40 -14 22 -32 40 -40 40 -15 0 -88 75 -106 111 -7 13 -28 38 -46 55
-31 29 -48 64 -24 49 5 -3 -5 20 -23 52 -89 160 -147 377 -147 553 0 153 42
348 103 481 44 93 138 224 202 281 27 24 45 36 41 28 -5 -8 6 2 25 23 32 37
72 63 181 122 81 43 87 27 6 -18 -224 -128 -409 -346 -472 -557 -23 -76 -56
-248 -56 -291 l0 -36 83 -6 c126 -10 202 -8 219 6 9 7 18 36 22 72 6 52 31
159 65 274 6 19 8 38 5 42 -3 5 0 9 5 9 6 0 11 9 11 21 0 11 4 18 9 15 5 -3
12 15 16 40 5 34 10 43 18 35 6 -6 17 -11 24 -11 11 0 10 7 -2 31 -21 39 -15
45 19 18 31 -25 43 -20 26 11 -16 30 -5 37 21 14 21 -19 21 -19 39 4 10 12 25
22 33 22 8 0 25 8 38 18 13 11 33 21 44 25 11 3 61 20 110 37 65 23 115 33
183 37 84 5 92 8 93 27 l2 21 4 -21 c4 -19 13 -22 90 -28 174 -13 323 -85 468
-226 96 -92 164 -244 187 -410 l12 -90 158 0 158 0 0 68 c0 141 -68 357 -151
479 -95 141 -228 269 -357 346 -102 60 -167 85 -286 108 -55 11 -102 22 -105
26 -13 13 148 -8 209 -28z m-575 10 c-132 -23 -204 -39 -245 -54 -25 -9 -40
-12 -35 -6 28 26 199 69 280 69 l50 0 -50 -9z m-2549 -65 c58 -17 79 -34 42
-34 -25 0 -132 48 -110 49 8 1 38 -6 68 -15z m-742 -3 c4 -5 -3 -7 -14 -4 -23
6 -26 13 -6 13 8 0 17 -4 20 -9z m6801 -206 c41 -173 64 -335 73 -530 l7 -150
30 -5 c56 -9 94 -41 114 -95 27 -72 34 -126 21 -160 -12 -33 -68 -95 -84 -95
-6 0 -5 4 3 9 7 5 11 13 8 19 -4 5 2 17 13 27 11 10 20 14 20 10 0 -5 7 0 15
11 16 22 20 48 5 39 -6 -4 -6 4 1 22 14 38 -12 103 -58 144 -33 28 -41 31 -90
27 -60 -5 -105 -38 -129 -95 -21 -48 -18 -110 5 -130 11 -9 18 -19 16 -23 -2
-3 15 -18 38 -33 30 -20 54 -27 92 -28 37 0 45 -3 30 -9 -32 -14 -81 -11 -123
5 -94 38 -136 182 -78 270 18 28 101 85 123 85 16 0 15 -16 3 172 -11 160 -45
386 -86 573 -13 61 -26 121 -29 135 -17 81 32 -78 60 -195z m-6822 178 c-7 -2
-13 -12 -13 -20 0 -9 -3 -14 -6 -10 -10 10 4 37 18 36 10 0 10 -2 1 -6z m2667
-11 c0 -8 -62 -50 -150 -102 l-53 -31 18 27 c16 25 16 26 1 21 -10 -4 -15 -3
-11 3 3 6 11 10 16 10 5 0 20 10 32 21 38 37 81 59 115 59 17 0 32 -3 32 -8z
m-1020 -42 c0 -5 -5 -10 -11 -10 -5 0 -7 5 -4 10 3 6 8 10 11 10 2 0 4 -4 4
-10z m-1673 -32 c-3 -8 -6 -5 -6 6 -1 11 2 17 5 13 3 -3 4 -12 1 -19z m380
-65 c3 -8 -2 -60 -10 -116 -20 -121 -32 -242 -48 -469 -20 -275 12 -570 95
-883 52 -198 64 -232 140 -418 158 -390 376 -705 723 -1048 406 -403 861 -666
1398 -809 243 -65 439 -89 760 -93 116 -2 216 -7 224 -11 7 -5 21 -22 31 -39
18 -30 18 -31 0 -68 -11 -21 -25 -41 -32 -45 -26 -16 -364 2 -583 32 -314 42
-528 98 -834 219 -169 66 -215 89 -412 200 -266 151 -442 286 -675 519 -205
206 -350 387 -509 642 -225 358 -391 832 -455 1299 -24 173 -24 446 -1 675 20
191 56 400 82 467 l9 24 46 -31 c25 -18 48 -39 51 -47z m367 57 c36 -6 63 -16
71 -27 8 -10 12 -20 10 -21 -6 -6 -152 27 -187 42 l-33 14 40 1 c22 1 66 -3
99 -9z m-729 -40 c13 -6 15 -9 5 -9 -8 0 -22 4 -30 9 -18 12 -2 12 25 0z m-25
-24 c0 -3 -4 -8 -10 -11 -5 -3 -10 -1 -10 4 0 6 5 11 10 11 6 0 10 -2 10 -4z
m5275 -55 c33 -11 53 -20 45 -20 -8 0 -42 8 -75 18 -33 11 -53 20 -45 20 8 0
42 -8 75 -18z m-4546 -27 c71 -16 112 -37 98 -50 -17 -17 -267 40 -267 61 0
11 105 4 169 -11z m6271 -34 c0 -38 -38 -49 -62 -19 -27 32 -23 57 10 61 36 5
52 -8 52 -42z m-1590 14 c30 -8 93 -26 140 -39 47 -13 78 -24 70 -24 -18 -1
-291 67 -298 74 -10 10 34 4 88 -11z m-3161 -41 c-12 -15 -12 -16 4 -10 29 11
19 0 -45 -50 -57 -43 -60 -44 -35 -14 15 19 26 40 23 48 -4 10 -1 11 14 3 13
-7 21 -7 26 2 5 7 3 8 -7 3 -8 -5 -5 1 5 13 22 26 35 30 15 5z m2603 -126 c6
-26 15 -42 18 -36 5 6 19 0 38 -16 l32 -27 1 39 1 38 14 -32 c8 -18 18 -33 22
-33 5 0 16 -16 25 -36 10 -19 21 -33 25 -30 11 6 45 -23 71 -61 12 -18 29 -33
36 -33 18 0 22 -17 34 -123 12 -108 1 -215 -41 -387 -52 -215 -152 -384 -341
-574 -117 -119 -237 -210 -408 -309 -53 -31 -79 -36 -58 -11 13 16 145 104
156 104 9 0 53 42 53 50 0 3 -9 6 -20 6 -10 0 -17 -2 -14 -5 4 -5 -184 -100
-200 -101 -14 0 35 35 81 59 24 12 77 54 118 93 65 64 76 79 86 125 7 29 16
53 22 53 5 0 7 7 4 14 -4 10 -1 13 9 9 10 -4 14 2 14 22 0 17 4 24 12 19 6 -4
8 -3 4 4 -6 11 4 31 58 113 16 24 40 71 53 103 20 53 32 97 64 251 11 54 10
278 -2 340 -5 28 -13 104 -18 171 -4 66 -11 126 -15 133 -4 6 0 23 9 37 14 22
19 23 32 12 14 -11 15 -10 9 10 -3 12 -9 32 -12 45 -4 12 -17 38 -31 57 -23
32 -22 32 11 -5 20 -23 40 -60 48 -88z m-4099 44 c39 -15 33 -31 -10 -31 -57
1 -173 25 -186 40 -10 10 5 11 78 7 50 -3 102 -10 118 -16z m1367 -48 c-14
-25 -123 -141 -119 -127 4 11 121 144 127 144 1 0 -2 -8 -8 -17z m-58 -23 c-9
-16 -22 -30 -28 -30 -6 0 -17 -11 -24 -25 -13 -23 -30 -34 -30 -18 0 7 91 103
97 103 1 0 -6 -13 -15 -30z m4002 15 c-37 -17 -142 -35 -198 -35 -66 0 -35 9
83 24 63 9 116 18 119 21 3 3 10 5 16 4 6 0 -3 -7 -20 -14z m-5296 -80 c12 -3
22 -10 22 -17 0 -8 -24 -9 -82 -4 -163 13 -259 39 -180 48 26 3 192 -16 240
-27z m1182 -49 c0 -2 -8 -10 -17 -17 -16 -13 -17 -12 -4 4 13 16 21 21 21 13z
m-1227 -72 c15 -4 27 -13 27 -21 0 -11 -14 -13 -77 -7 -118 10 -156 18 -161
33 -4 12 11 13 89 7 52 -3 106 -9 122 -12z m1441 -61 l-3 -58 10 43 c11 45 5
43 97 42 4 0 6 -82 4 -183 -4 -196 5 -262 55 -422 34 -106 120 -285 175 -362
107 -152 293 -303 503 -410 94 -47 144 -79 179 -115 28 -28 77 -63 112 -79 81
-39 87 -48 21 -37 -305 52 -534 151 -867 373 -113 76 -312 185 -338 185 -9 0
-141 238 -175 315 -49 113 -89 395 -56 395 16 0 48 42 49 63 0 9 7 17 15 17 9
0 18 12 22 30 4 25 10 30 34 30 24 0 29 4 29 25 0 13 9 39 20 57 l20 33 0 -27
c0 -45 19 -32 22 15 2 29 8 42 18 42 16 0 40 40 40 68 0 9 4 17 8 17 5 0 7
-26 6 -57z m4013 -323 c-5 -336 -7 -348 -82 -659 -54 -222 -115 -380 -220
-570 -87 -158 -113 -191 -148 -191 -12 0 -47 -12 -76 -26 -39 -20 -62 -40 -89
-81 -34 -51 -37 -62 -42 -148 l-5 -92 -84 -92 c-152 -166 -287 -268 -603 -453
-216 -127 -545 -237 -840 -282 -115 -18 -468 -37 -653 -35 -104 1 -114 3 -78
12 39 9 44 14 54 50 6 22 11 52 12 66 l2 26 -143 6 c-78 3 -145 8 -148 11 -3
3 102 6 233 5 227 0 435 16 555 42 24 6 99 19 168 31 146 25 475 130 590 188
183 93 288 162 434 283 231 193 346 323 531 599 167 249 263 457 330 715 57
220 68 301 75 555 3 129 7 220 8 201 l2 -35 20 22 c16 17 32 22 73 22 29 0 59
6 65 12 7 7 20 13 30 13 15 0 18 14 21 95 9 177 13 17 8 -290z m-6102 290 c0
-31 -3 -35 -27 -38 -19 -2 -30 3 -38 17 -16 32 4 63 38 59 24 -3 27 -7 27 -38z
m1765 30 c0 -5 7 -10 16 -10 11 0 6 -12 -19 -42 -18 -24 -65 -88 -102 -143
-38 -55 -78 -113 -90 -130 -13 -16 -30 -47 -40 -68 -10 -21 -19 -36 -21 -34
-2 2 3 18 12 35 23 48 11 63 -14 17 -12 -22 -21 -35 -22 -28 0 19 71 132 96
152 13 10 28 30 35 44 6 13 22 31 35 38 13 7 24 16 24 21 0 5 -4 6 -10 3 -19
-12 -10 20 20 67 23 36 33 45 50 41 20 -5 28 11 10 22 -12 7 -4 25 11 25 5 0
9 -4 9 -10z m-1084 -161 c12 -21 -12 -27 -141 -33 -120 -6 -129 -5 -113 10 24
24 241 44 254 23z m277 -1 c-2 -5 -3 -26 -3 -49 0 -39 -1 -40 -32 -37 -25 2
-34 8 -36 25 -5 32 27 75 52 71 12 -2 20 -6 19 -10z m5581 -104 c14 -37 7 -44
-44 -44 -43 0 -52 3 -59 23 -11 28 2 37 55 37 29 0 44 -5 48 -16z m-6536 -10
c26 -18 29 -56 6 -78 -28 -28 -71 -24 -101 10 -28 31 -28 39 -3 64 24 24 67
26 98 4z m697 -9 c0 -13 -84 -23 -197 -24 -101 -1 -118 15 -25 23 165 16 222
16 222 1z m6224 -21 c24 -30 26 -55 10 -87 -16 -30 -28 -37 -68 -37 -70 0
-109 82 -61 130 31 31 93 27 119 -6z m-509 -9 c-7 -9 -15 -13 -17 -11 -6 6 20
36 26 30 2 -2 -2 -10 -9 -19z m203 8 c-7 -2 -19 -2 -25 0 -7 3 -2 5 12 5 14 0
19 -2 13 -5z m-5923 -72 c0 -10 -19 -15 -120 -31 -82 -12 -167 -13 -154 -1 9
9 184 38 242 40 17 1 32 -3 32 -8z m4411 -135 c-52 -247 -161 -430 -404 -674
-202 -204 -438 -349 -672 -413 -108 -29 -283 -69 -309 -70 -19 -1 -18 -2 4 -9
16 -6 -4 -7 -55 -5 -60 3 -71 2 -45 -5 22 -5 -19 -7 -115 -4 -165 5 -318 20
-380 36 -230 58 -339 96 -446 153 -101 54 -141 72 -147 64 -2 -2 -8 4 -13 13
-5 10 -20 23 -32 29 -19 9 -19 8 3 -10 45 -37 6 -22 -78 30 -80 49 -99 64 -64
52 87 -31 -187 116 -319 171 -148 61 -329 82 -439 50 -30 -9 -84 -24 -120 -34
-81 -22 -147 -75 -230 -184 -33 -43 -60 -75 -60 -71 0 26 77 160 125 218 82
99 155 153 250 183 99 31 249 42 315 23 29 -8 39 -14 27 -17 -18 -4 -18 -4 1
-17 10 -8 55 -28 98 -45 103 -41 171 -78 389 -215 269 -168 562 -298 790 -351
101 -24 472 -27 570 -5 200 44 324 85 449 145 207 101 328 186 490 344 100 99
143 152 245 305 65 98 79 127 129 280 60 182 76 194 43 33z m-505 18 c-4 -20
-10 -34 -12 -31 -3 3 -2 21 2 41 3 21 9 35 11 32 3 -3 2 -21 -1 -42z m801 24
c-3 -8 -6 -5 -6 6 -1 11 2 17 5 13 3 -3 4 -12 1 -19z m-4687 -7 c0 -14 -181
-51 -252 -51 -55 0 -39 16 24 24 29 4 85 13 123 21 87 16 105 17 105 6z m4667
-93 c-3 -8 -6 -5 -6 6 -1 11 2 17 5 13 3 -3 4 -12 1 -19z m-4647 -7 c0 -6 -3
-12 -8 -15 -13 -8 -155 -34 -224 -41 -95 -9 -87 10 10 25 42 6 102 18 132 25
68 16 90 18 90 6z m6081 -91 c-17 -78 -14 -124 9 -145 27 -25 25 -50 -6 -74
-32 -25 -71 -27 -102 -5 -18 12 -22 24 -20 52 3 33 8 39 45 56 33 15 43 26 48
50 15 79 28 127 32 122 3 -2 0 -28 -6 -56z m-4435 23 c-10 -10 -19 5 -10 18 6
11 8 11 12 0 2 -7 1 -15 -2 -18z m-1616 -42 c0 -8 -159 -49 -274 -70 -41 -7
-46 -7 -34 5 7 7 70 27 138 43 136 31 170 36 170 22z m1689 -105 c-3 -3 -11 5
-18 17 -13 21 -12 21 5 5 10 -10 16 -20 13 -22z m2857 -18 c-9 -12 -16 -17
-16 -11 0 7 5 15 10 18 6 3 11 16 11 28 1 17 2 18 6 5 2 -10 -3 -28 -11 -40z
m-4532 19 c-4 -12 -49 -25 -241 -72 -41 -10 -53 -10 -53 -1 0 6 56 28 128 48
139 40 174 45 166 25z m4647 -10 c-6 -6 -10 -27 -10 -46 l2 -36 7 35 c6 30 8
31 9 8 0 -14 -2 -34 -6 -43 -5 -15 -8 -14 -19 6 l-13 24 -1 -27 c0 -16 0 -39
0 -53 0 -19 -6 -25 -23 -26 -16 -1 -17 -3 -5 -6 16 -4 15 -7 -2 -48 -25 -58
-93 -165 -155 -245 -28 -36 -58 -77 -67 -91 -39 -62 -277 -316 -291 -311 -5 1
-6 -2 -3 -7 3 -5 -32 -41 -79 -80 -47 -39 -85 -66 -85 -60 0 8 -5 8 -15 -1 -8
-7 -15 -20 -15 -29 0 -13 -2 -13 -9 -2 -7 11 -10 9 -16 -8 -8 -25 -25 -28 -25
-3 0 9 27 42 60 72 115 105 266 255 331 330 93 105 277 364 306 430 13 30 33
73 45 95 11 22 32 63 47 92 14 28 30 49 34 46 5 -3 4 -10 -2 -16z m-5397 -17
c40 -15 33 -60 -11 -74 -15 -5 -28 -1 -42 13 -28 28 -27 58 2 64 12 2 23 5 24
6 1 0 13 -3 27 -9z m5480 -53 c-3 -133 -78 -285 -243 -492 -140 -175 -176
-218 -251 -294 -41 -43 -62 -62 -46 -44 25 27 27 33 12 33 -9 0 -46 -29 -82
-64 -35 -36 -64 -60 -65 -53 0 7 -3 5 -6 -3 -6 -15 -50 -60 -59 -60 -3 0 -2 6
2 13 5 8 2 8 -9 -2 -15 -12 -17 -11 -17 2 0 9 9 19 20 22 11 3 20 11 20 16 0
6 5 7 10 4 6 -3 10 1 10 9 0 9 11 18 25 22 14 4 23 9 21 12 -3 3 38 51 92 106
100 104 183 203 244 291 19 28 64 93 101 146 36 53 96 157 132 230 65 134 83
169 88 169 1 0 1 -28 1 -63z m-224 -2 c0 -8 -4 -15 -10 -15 -5 0 -7 7 -4 15 4
8 8 15 10 15 2 0 4 -7 4 -15z m-4480 -21 c0 -17 -221 -84 -277 -84 -39 0 9 22
118 54 110 33 159 42 159 30z m4461 -23 c-7 -5 -10 -14 -7 -20 4 -6 0 -18 -8
-27 -9 -9 -14 -20 -11 -25 4 -5 1 -9 -4 -9 -6 0 -11 -6 -11 -14 0 -21 -27 -69
-32 -55 -5 14 -31 -24 -43 -61 -7 -22 -4 -21 24 10 17 19 31 31 31 26 0 -8
-46 -75 -60 -86 -3 -3 -34 -42 -68 -87 -34 -45 -67 -85 -74 -89 -7 -4 -8 -3
-4 4 11 18 0 14 -15 -5 -10 -11 -10 -14 -1 -9 25 15 11 -11 -25 -45 -20 -18
-33 -28 -29 -21 4 6 3 12 -3 12 -5 0 -13 -9 -16 -20 -3 -11 -12 -20 -20 -20
-18 0 -79 -59 -70 -68 4 -4 10 -1 12 6 3 7 16 17 30 23 13 5 21 13 18 19 -3 5
2 10 12 10 19 0 -102 -127 -210 -222 -47 -41 -56 -46 -46 -25 6 14 15 25 19
24 5 -1 8 3 8 8 0 6 -5 9 -11 7 -11 -3 58 73 180 198 29 30 58 60 63 65 75 77
198 239 260 340 23 39 45 72 49 75 3 3 13 19 21 35 20 42 31 55 44 55 6 0 5
-4 -3 -9z m1459 -101 c-6 -23 -13 -40 -15 -38 -3 2 0 20 5 39 6 18 11 47 11
64 2 29 2 29 6 3 2 -14 -1 -45 -7 -68z m-4159 63 c13 -16 12 -17 -3 -4 -17 13
-22 21 -14 21 2 0 10 -8 17 -17z m148 -142 c-6 -2 -39 25 -73 59 l-61 62 73
-58 c40 -32 67 -61 61 -63z m-1869 100 c0 -12 -62 -36 -154 -60 -41 -11 -84
-25 -95 -30 -14 -8 -22 -8 -26 0 -4 6 -5 12 -4 14 6 5 253 83 267 84 6 1 12
-3 12 -8z m-762 -97 c2 -25 -2 -33 -24 -43 -32 -14 -30 -15 -37 31 -6 43 -1
50 33 46 20 -2 26 -9 28 -34z m802 -4 c-23 -15 -266 -110 -281 -110 -10 0 -10
4 2 15 23 23 229 105 264 105 23 0 27 -3 15 -10z m4200 7 c0 -2 -10 -12 -22
-23 l-23 -19 19 23 c18 21 26 27 26 19z m360 -159 c-38 -83 -92 -173 -148
-248 -11 -14 -39 -54 -62 -90 -58 -87 -134 -173 -325 -369 -160 -163 -305
-291 -330 -291 -8 0 -41 -22 -73 -49 -93 -77 -196 -143 -337 -214 -107 -54
-154 -71 -265 -97 -74 -17 -193 -38 -265 -45 -71 -8 -185 -24 -252 -35 -162
-28 -473 -28 -643 -1 l-115 18 58 8 c32 4 75 5 95 1 47 -7 173 4 166 15 -3 5
-35 9 -72 10 -47 0 -61 3 -47 9 26 11 -71 12 -99 1 -10 -4 -46 -1 -80 6 -33 7
-106 13 -161 13 -120 0 -286 23 -346 46 -24 10 -90 46 -147 81 -57 35 -140 82
-185 104 -45 23 -106 57 -135 75 -62 40 -263 141 -344 173 -151 60 -3 33 302
-54 199 -58 241 -67 485 -107 125 -21 170 -23 415 -21 151 1 374 7 495 13 121
7 231 12 245 12 14 -1 41 4 60 10 42 12 143 58 150 67 3 4 21 13 40 21 69 27
194 93 326 171 74 44 139 79 144 77 6 -2 -13 -19 -42 -38 -29 -18 -100 -71
-158 -115 -204 -158 -348 -231 -531 -269 -247 -51 -898 -69 -1134 -32 -66 10
-142 20 -170 22 -56 3 -135 23 -135 34 0 4 23 1 52 -6 29 -8 59 -14 68 -13 22
1 -65 28 -110 33 -20 2 -65 18 -98 34 -34 17 -62 29 -62 27 0 -9 158 -96 208
-115 29 -11 110 -30 180 -42 267 -46 909 -24 1267 43 76 14 214 64 229 83 6 8
130 94 276 191 146 98 289 201 319 229 54 51 54 51 23 9 -18 -23 -58 -63 -90
-90 -114 -97 -365 -273 -454 -319 -93 -47 -37 -36 72 14 78 36 198 114 291
188 37 30 73 54 79 54 7 0 42 29 79 65 37 36 71 65 75 65 23 0 -50 -83 -125
-142 -19 -14 -54 -42 -79 -62 -96 -76 -228 -165 -285 -194 -33 -16 -109 -46
-170 -65 -60 -20 -130 -44 -155 -55 -82 -35 -284 -102 -355 -118 -103 -23
-560 -31 -771 -14 -90 8 -164 17 -164 21 0 4 -8 10 -17 12 -10 2 -7 2 7 0 14
-3 132 -7 263 -10 242 -5 579 8 696 28 75 12 226 71 197 77 -10 2 -22 -1 -25
-6 -8 -14 -252 -49 -406 -59 -66 -4 -228 -8 -360 -7 -197 0 -264 4 -373 22
-73 12 -141 26 -152 32 -10 5 -22 10 -26 10 -18 0 152 -100 195 -115 82 -30
280 -45 581 -44 253 0 299 3 415 24 130 23 130 23 65 25 l-65 2 47 8 c65 11
148 36 248 75 47 18 110 40 140 50 76 23 213 88 285 135 33 21 72 40 87 42 15
2 40 16 55 30 16 14 65 53 110 87 46 34 101 83 123 109 22 26 40 42 40 36 0
-23 -61 -93 -161 -184 -95 -87 -132 -124 -171 -169 -8 -9 -23 -22 -34 -28 -16
-10 -14 -11 11 -2 17 6 62 35 102 64 172 130 274 242 345 382 23 45 44 80 46
78 3 -2 -2 -19 -11 -37 -9 -18 -25 -55 -37 -82 -40 -95 -146 -220 -322 -381
-59 -54 -105 -102 -102 -107 3 -4 2 -7 -3 -6 -5 2 -29 -14 -53 -36 l-45 -38
60 33 c148 81 369 285 488 450 9 13 28 39 42 58 37 52 30 22 -12 -53 -45 -78
-122 -173 -218 -268 -64 -64 -66 -74 -7 -32 12 9 22 14 22 11 0 -3 -21 -21
-47 -38 -27 -18 -58 -43 -70 -56 -13 -13 -23 -21 -23 -17 0 4 -11 -3 -25 -16
-13 -12 -22 -26 -20 -31 5 -7 -24 -35 -75 -72 l-25 -18 25 12 c49 23 246 177
288 225 85 98 182 213 182 217 0 9 83 141 96 155 8 7 14 18 14 24 0 6 3 9 6 6
3 -4 -18 -50 -47 -105 -55 -103 -74 -133 -140 -223 -22 -30 -50 -68 -62 -85
-12 -16 -41 -49 -66 -72 -49 -48 -48 -52 4 -23 19 11 36 20 38 19 29 -6 193
192 252 304 59 113 68 109 29 -12 -15 -45 -85 -172 -112 -204 -8 -9 -13 -19
-10 -22 3 -3 40 30 83 72 58 58 76 72 71 53 -7 -23 -4 -22 24 10 294 330 390
430 412 423 4 -2 17 12 30 30 12 17 63 78 111 135 49 57 113 140 143 185 29
45 67 102 85 127 17 25 49 74 72 110 56 89 60 56 7 -62z m-413 80 c-3 -8 -6
-5 -6 6 -1 11 2 17 5 13 3 -3 4 -12 1 -19z m-4097 -3 c0 -11 -263 -136 -278
-133 -22 5 54 50 167 99 82 36 111 45 111 34z m-803 -43 c13 -31 12 -33 -14
-43 -36 -13 -50 -6 -58 32 -13 58 49 68 72 11z m2003 -158 c102 -95 181 -153
314 -228 226 -128 437 -195 776 -246 102 -16 391 -8 509 14 51 9 95 15 98 12
7 -7 -117 -44 -197 -58 -46 -8 -149 -13 -265 -12 -172 1 -204 4 -341 32 -197
41 -339 88 -499 166 -155 76 -291 166 -390 258 -77 72 -155 167 -155 188 0 15
7 8 150 -126z m-91 -37 c87 -90 180 -163 307 -240 113 -69 147 -86 263 -131
395 -156 809 -197 1156 -116 48 11 90 19 92 16 7 -7 -194 -67 -277 -83 -109
-21 -295 -27 -392 -14 -384 55 -753 193 -987 370 -123 91 -339 329 -324 355 3
5 24 -11 46 -35 22 -24 74 -79 116 -122z m-1096 135 c-40 -30 -303 -164 -303
-154 0 6 21 23 48 40 127 81 329 171 255 114z m5419 -45 c16 -20 15 -22 -24
-39 -52 -23 -61 -23 -94 5 -24 21 -25 26 -14 46 11 21 16 23 63 17 36 -5 57
-14 69 -29z m-4496 -44 c53 -64 56 -67 166 -169 165 -155 438 -310 668 -382
80 -25 232 -62 340 -83 125 -24 355 -31 543 -16 93 7 235 48 275 80 7 5 15 7
18 5 3 -3 -10 -15 -28 -26 -61 -38 -142 -64 -218 -70 -60 -5 -68 -7 -40 -12
33 -6 31 -7 -37 -23 -110 -26 -307 -23 -486 8 -342 57 -604 155 -857 320 -171
110 -468 425 -401 425 5 0 30 -26 57 -57z m-1693 1 c2 -23 -3 -30 -20 -32 -22
-3 -57 34 -47 50 9 14 48 27 57 19 4 -4 9 -21 10 -37z m6460 -9 c78 -15 9 -50
-75 -39 -28 4 -48 12 -48 19 0 16 27 38 38 32 4 -3 14 -2 22 3 8 5 17 5 20 0
3 -4 22 -11 43 -15z m-4813 -72 c159 -192 302 -307 542 -433 142 -74 359 -149
555 -191 126 -27 175 -32 335 -36 103 -3 186 -9 183 -13 -3 -4 -40 -11 -82
-15 -58 -6 -73 -10 -58 -16 27 -12 -133 -2 -260 17 -297 43 -482 100 -701 215
-85 44 -175 97 -201 117 -27 20 -73 54 -104 75 -31 20 -86 72 -123 115 -71 85
-177 230 -158 218 16 -9 16 6 0 22 -7 7 -9 12 -6 12 3 0 38 -39 78 -87z m500
15 c17 -15 34 -28 37 -28 3 0 42 -21 87 -47 126 -72 243 -127 341 -161 158
-53 341 -95 472 -108 93 -9 91 -9 100 -18 12 -13 -221 1 -322 19 -170 31 -414
123 -597 227 -94 53 -276 212 -191 167 23 -12 56 -35 73 -51z m-984 15 c-11
-11 -19 6 -11 24 8 17 8 17 12 0 3 -10 2 -21 -1 -24z m-466 -4 c0 -5 -30 -24
-67 -41 -38 -16 -78 -39 -90 -51 -15 -13 -23 -16 -23 -7 0 20 70 67 145 96 17
6 31 12 33 13 1 0 2 -4 2 -10z m5660 -48 c0 -32 -84 -206 -159 -330 -28 -46
-51 -88 -51 -93 0 -5 12 -19 27 -32 25 -22 26 -24 10 -47 -14 -19 -17 -20 -17
-6 0 10 -4 15 -10 12 -5 -3 -10 -15 -10 -26 0 -24 -11 -24 -43 1 -25 20 -137
40 -223 40 l-32 0 5 -65 c5 -56 2 -72 -21 -119 -30 -61 -105 -131 -164 -152
-90 -32 -193 -5 -276 74 -99 93 -103 252 -10 361 49 56 104 83 186 89 59 4 75
1 122 -22 30 -15 74 -49 98 -75 l43 -48 135 -7 135 -7 65 113 c35 62 77 133
93 157 30 44 76 161 77 194 0 9 5 17 10 17 6 0 10 -13 10 -29z m-6301 -23 c10
-28 9 -35 -6 -46 -29 -21 -58 -11 -61 21 -5 41 4 57 32 57 18 0 27 -8 35 -32z
m5181 -18 c-6 -11 -13 -20 -16 -20 -2 0 0 9 6 20 6 11 13 20 16 20 2 0 0 -9
-6 -20z m-4535 1 c-8 -15 -121 -81 -136 -81 -23 0 9 22 111 77 30 15 33 16 25
4z m165 -10 c0 -5 -25 -23 -56 -41 -31 -17 -62 -36 -68 -41 -35 -30 -136 -87
-140 -80 -6 9 25 32 158 115 91 57 106 63 106 47z m4315 -31 c-19 -38 -19 -46
2 -29 56 46 -274 -386 -354 -462 -87 -84 -256 -221 -341 -276 -86 -57 -270
-149 -279 -140 -3 3 10 13 29 23 129 67 458 332 613 494 61 65 164 190 277
337 35 46 64 83 66 83 1 0 -4 -13 -13 -30z m-4443 -175 c-62 -45 -82 -54 -82
-35 0 6 5 10 10 10 6 0 34 16 63 35 75 51 82 43 9 -10z m3695 -4 c-6 -17 -14
-28 -19 -25 -4 3 -1 16 8 30 21 32 25 30 11 -5z m-2604 -61 c18 -8 32 -22 32
-29 0 -8 6 -16 14 -19 9 -3 11 0 6 8 -5 9 -4 11 4 6 6 -4 8 -12 5 -18 -5 -7
-2 -9 7 -6 16 6 62 -26 52 -36 -4 -3 1 -6 10 -6 8 0 17 -3 19 -7 3 -8 8 -11
193 -108 106 -55 249 -108 394 -145 76 -20 38 -20 -54 -1 -156 33 -446 163
-584 263 -129 93 -171 129 -164 141 4 6 11 3 20 -9 8 -10 28 -26 46 -34z
m2551 7 c-3 -9 -11 -17 -16 -17 -6 0 -7 7 -4 16 3 9 6 21 6 27 0 8 3 8 10 1 6
-6 8 -18 4 -27z m-2914 -18 c0 -11 -48 -35 -55 -27 -3 3 -1 17 5 32 8 23 13
25 30 16 11 -6 20 -15 20 -21z m1773 4 c-7 -2 -21 -2 -30 0 -10 3 -4 5 12 5
17 0 24 -2 18 -5z m-3033 -47 c13 -24 13 -28 0 -36 -23 -15 -38 -12 -50 10 -8
14 -8 26 0 41 14 25 30 21 50 -15z m3904 -30 c-20 -31 -41 -56 -47 -56 -10 0
8 31 50 88 40 53 37 31 -3 -32z m-2724 29 c28 -33 -43 -112 -75 -85 -23 19
-18 56 11 79 32 25 47 26 64 6z m2505 -5 c-3 -5 -11 -10 -16 -10 -6 0 -7 5 -4
10 3 6 11 10 16 10 6 0 7 -4 4 -10z m645 1 c0 -5 -9 -19 -21 -32 l-20 -24 17
33 c19 33 24 38 24 23z m-120 -20 c0 -5 -7 -14 -15 -21 -16 -14 -18 -10 -9 14
6 17 24 22 24 7z m142 -13 c-7 -7 -12 -8 -12 -2 0 14 12 26 19 19 2 -3 -1 -11
-7 -17z m-75 -40 c-3 -8 -6 -5 -6 6 -1 11 2 17 5 13 3 -3 4 -12 1 -19z m-4215
-57 c5 -35 -17 -37 -32 -2 -14 35 -5 60 15 39 8 -7 15 -24 17 -37z m1618 -7
c0 -3 -13 4 -30 16 -16 12 -30 24 -30 26 0 3 14 -4 30 -16 17 -12 30 -24 30
-26z m2630 33 c0 -7 -7 -22 -15 -33 -13 -17 -14 -16 -4 14 11 33 19 41 19 19z
m1554 -54 c-15 -55 -395 -535 -411 -519 -3 3 9 20 26 38 118 129 265 317 331
426 43 70 63 90 54 55z m-5731 -100 c-8 -20 -38 2 -53 37 -10 24 -10 33 1 46
11 14 15 10 35 -27 12 -24 19 -49 17 -56z m4097 -24 c0 -5 -4 -9 -10 -9 -5 0
-10 7 -10 16 0 8 5 12 10 9 6 -3 10 -10 10 -16z m-1163 -85 c-3 -3 -12 -4 -19
-1 -8 3 -5 6 6 6 11 1 17 -2 13 -5z m-137 -35 c-36 -10 -94 -21 -130 -24 -62
-5 -60 -4 40 19 126 29 180 32 90 5z m-1841 -100 c-13 -18 -27 -28 -36 -25 -8
3 -11 1 -8 -4 9 -15 -4 -30 -21 -23 -12 4 -6 15 27 49 47 48 71 50 38 3z m104
-21 c-16 -18 -43 -50 -58 -71 -25 -34 -30 -37 -44 -23 -14 14 -11 20 23 55 21
22 49 42 62 45 13 4 24 11 24 16 0 6 5 10 12 10 7 0 -2 -15 -19 -32z m46 -89
c-41 -68 -59 -90 -70 -83 -19 11 -7 41 37 98 58 74 80 64 33 -15z m75 -46
c-64 -114 -63 -112 -74 -93 -12 20 19 76 76 138 26 29 49 52 50 52 2 0 -22
-44 -52 -97z m2356 79 c0 -4 -10 -13 -22 -21 -23 -14 -23 -14 -4 8 20 22 26
25 26 13z m1980 -6 c0 -2 -8 -10 -17 -17 -16 -13 -17 -12 -4 4 13 16 21 21 21
13z m-4254 -131 c-45 -95 -47 -98 -65 -81 -21 19 -19 30 12 84 27 45 32 40 7
-8 -11 -21 -20 -45 -20 -52 0 -7 12 12 26 42 27 58 73 124 81 117 2 -3 -16
-49 -41 -102z m89 -32 c-37 -78 -61 -113 -77 -113 -25 0 28 122 76 173 14 15
27 33 27 40 1 7 3 4 6 -5 2 -9 -12 -52 -32 -95z m105 26 c-20 -68 -76 -189
-88 -189 -29 0 -21 35 29 125 53 96 75 120 59 64z m91 -11 c4 -39 -68 -228
-87 -228 -28 0 -24 25 20 117 25 52 46 101 46 109 0 17 20 19 21 2z m339 -67
c47 -11 99 -22 115 -24 19 -2 10 -5 -22 -6 -48 -1 -213 42 -213 55 0 3 8 3 18
0 9 -3 55 -14 102 -25z m224 19 c28 0 36 -3 27 -9 -12 -8 -12 -10 0 -14 8 -2
5 -3 -6 -1 -11 2 -67 6 -125 10 -73 5 -97 10 -80 15 14 5 52 6 84 4 32 -3 77
-5 100 -5z m-1644 -21 c7 -11 9 -28 5 -37 -6 -15 -9 -14 -25 6 -18 22 -18 52
1 52 4 0 13 -9 19 -21z m1144 -10 c-3 -6 -1 -15 6 -19 17 -10 -51 -174 -75
-178 -14 -3 -17 1 -12 20 9 41 72 187 80 188 5 0 5 -5 1 -11z m95 -55 c-5 -6
-6 -14 -3 -17 6 -6 -43 -155 -56 -170 -4 -4 -12 -2 -17 5 -8 9 1 43 30 121 29
73 44 102 48 90 4 -10 3 -23 -2 -29z m461 -8 c80 -14 172 -29 205 -34 33 -5
49 -10 35 -11 -48 -2 -423 58 -434 69 -8 9 -4 11 19 7 17 -3 95 -17 175 -31z
m3070 -5 c0 -12 -73 -81 -79 -75 -4 4 68 84 76 84 2 0 3 -4 3 -9z m-3475 -97
c-15 -38 -29 -79 -32 -91 -3 -13 -10 -23 -15 -23 -6 0 -7 8 -3 18 4 9 21 55
38 102 17 46 32 80 34 74 2 -6 -8 -42 -22 -80z m338 79 c-7 -2 -19 -2 -25 0
-7 3 -2 5 12 5 14 0 19 -2 13 -5z m54 -9 c-3 -3 -12 -4 -19 -1 -8 3 -5 6 6 6
11 1 17 -2 13 -5z m-387 -120 c-17 -43 -29 -65 -26 -49 5 34 50 147 54 136 1
-4 -11 -43 -28 -87z m96 29 l-5 -48 18 50 c11 28 20 46 20 40 2 -14 -53 -185
-59 -185 -3 0 -11 4 -19 9 -11 7 -8 24 15 95 15 47 30 86 32 86 2 0 2 -21 -2
-47z m-1121 3 c18 -26 11 -50 -20 -76 -13 -11 -19 -10 -35 5 -24 22 -25 43 -4
73 20 29 40 28 59 -2z m1225 -95 c-16 -59 -25 -78 -36 -74 -17 6 -17 3 -3 58
6 25 15 42 20 39 5 -3 6 2 3 10 -3 8 3 29 13 46 27 46 28 15 3 -79z m3019 51
c28 -23 34 -36 38 -78 6 -62 -7 -91 -52 -110 -69 -28 -131 -9 -159 50 -43 91
1 165 99 166 30 0 49 -7 74 -28z m-4151 -24 c17 -17 15 -29 -8 -58 -19 -24
-21 -24 -34 -7 -14 19 -12 40 7 65 12 15 20 15 35 0z m1584 -107 c7 11 8 9 4
-6 -2 -11 -7 -41 -11 -67 -4 -32 -11 -48 -21 -48 -17 0 -18 16 -1 94 8 40 13
52 15 37 3 -19 6 -21 14 -10z m84 -53 c-4 -30 -3 -39 4 -28 7 11 10 4 10 -27
0 -36 -2 -41 -20 -36 -23 6 -24 14 -8 82 14 62 23 67 14 9z m21 5 c-3 -10 -5
-4 -5 12 0 17 2 24 5 18 2 -7 2 -21 0 -30z m-213 0 c-10 -46 -13 -53 -24 -53
-7 0 -8 6 0 19 5 11 10 29 10 40 0 12 5 21 10 21 6 0 8 -12 4 -27z m1786 -25
c50 -82 -8 -170 -71 -107 -17 17 -20 30 -16 65 8 79 52 99 87 42z m680 -3 c0
-2 -10 -9 -22 -15 -22 -11 -22 -10 -4 4 21 17 26 19 26 11z m-80 -50 c0 -2
-10 -9 -22 -15 -22 -11 -22 -10 -4 4 21 17 26 19 26 11z m-3740 -41 c0 -2 -9
0 -20 6 -11 6 -20 13 -20 16 0 2 9 0 20 -6 11 -6 20 -13 20 -16z m2662 -86
c19 -29 5 -74 -25 -84 -15 -5 -27 0 -44 20 -29 34 -29 51 -1 70 31 22 53 20
70 -6z m763 -49 c-55 -27 -104 -48 -110 -48 -13 1 187 98 200 98 6 0 -35 -23
-90 -50z m-2773 -26 c37 -34 12 -77 -31 -53 -23 12 -27 40 -9 58 15 15 18 15
40 -5z m2638 -33 c-8 -5 -19 -10 -25 -10 -5 0 -3 5 5 10 8 5 20 10 25 10 6 0
3 -5 -5 -10z m-753 -216 c-3 -3 -12 -4 -19 -1 -8 3 -5 6 6 6 11 1 17 -2 13 -5z"/>
<path d="M3980 8645 c0 -8 2 -15 4 -15 2 0 6 7 10 15 3 8 1 15 -4 15 -6 0 -10
-7 -10 -15z"/>
<path d="M3955 8640 c3 -5 8 -10 11 -10 2 0 4 5 4 10 0 6 -5 10 -11 10 -5 0
-7 -4 -4 -10z"/>
<path d="M3900 8620 c0 -5 5 -10 10 -10 6 0 10 5 10 10 0 6 -4 10 -10 10 -5 0
-10 -4 -10 -10z"/>
<path d="M3860 8616 c0 -2 7 -7 16 -10 8 -3 12 -2 9 4 -6 10 -25 14 -25 6z"/>
<path d="M3930 8600 c0 -6 -4 -8 -10 -5 -5 3 -10 1 -10 -4 0 -13 10 -14 29 -2
9 6 10 11 2 15 -6 4 -11 2 -11 -4z"/>
<path d="M3776 8582 c-2 -4 2 -16 10 -27 8 -10 14 -14 14 -8 0 7 -5 15 -11 19
-8 4 -7 9 2 15 10 6 10 9 2 9 -6 0 -14 -3 -17 -8z"/>
<path d="M3705 8549 c-11 -16 -1 -19 13 -3 7 8 8 14 3 14 -5 0 -13 -5 -16 -11z"/>
<path d="M3580 8489 c0 -5 5 -7 10 -4 6 3 10 8 10 11 0 2 -4 4 -10 4 -5 0 -10
-5 -10 -11z"/>
<path d="M3539 8468 c7 -9 9 -23 5 -30 -6 -10 -4 -11 7 0 11 10 10 15 -6 30
-17 15 -18 15 -6 0z"/>
<path d="M3505 8460 c-3 -5 1 -10 10 -10 9 0 13 5 10 10 -3 6 -8 10 -10 10 -2
0 -7 -4 -10 -10z"/>
<path d="M3190 8231 c0 -7 -4 -10 -9 -7 -5 3 -14 -1 -21 -9 -9 -10 -9 -15 -1
-15 6 0 11 5 11 11 0 5 4 8 9 4 11 -6 26 13 17 22 -3 4 -6 1 -6 -6z"/>
<path d="M3020 8160 c0 -5 5 -10 11 -10 5 0 7 5 4 10 -3 6 -8 10 -11 10 -2 0
-4 -4 -4 -10z"/>
<path d="M2739 7953 l-24 -28 28 24 c25 23 32 31 24 31 -2 0 -14 -12 -28 -27z"/>
<path d="M2729 7908 c-19 -18 -40 -40 -45 -48 -5 -9 -1 -7 9 3 9 11 17 16 17
13 0 -6 26 18 49 47 21 26 9 20 -30 -15z"/>
<path d="M2690 7909 c0 -5 5 -7 10 -4 6 3 10 8 10 11 0 2 -4 4 -10 4 -5 0 -10
-5 -10 -11z"/>
<path d="M2663 7888 c-20 -26 -26 -41 -15 -34 12 7 36 46 29 46 -3 0 -9 -6
-14 -12z"/>
<path d="M2604 7829 c-19 -22 -19 -22 4 -10 12 6 22 16 22 21 0 15 -5 12 -26
-11z"/>
<path d="M2620 7800 c-26 -28 -38 -36 -47 -28 -9 7 -13 7 -13 -1 0 -6 5 -11
11 -11 8 0 7 -5 -1 -15 -7 -9 -11 -18 -8 -20 2 -3 26 20 52 51 55 63 59 82 6
24z"/>
<path d="M2537 7763 c-4 -3 -7 -11 -7 -17 0 -6 5 -5 12 2 6 6 9 14 7 17 -3 3
-9 2 -12 -2z"/>
<path d="M4288 7322 c-22 -4 -23 -18 -4 -25 8 -3 17 1 20 10 8 19 6 20 -16 15z"/>
<path d="M4203 7293 c-29 -9 -53 -19 -53 -24 0 -4 15 -3 33 3 17 5 42 12 55
15 12 3 22 9 22 14 0 5 -1 9 -2 8 -2 0 -27 -8 -55 -16z"/>
<path d="M4110 7260 c-8 -5 -10 -10 -5 -10 6 0 17 5 25 10 8 5 11 10 5 10 -5
0 -17 -5 -25 -10z"/>
<path d="M4376 7225 c-3 -9 -6 -22 -5 -28 0 -7 5 -1 10 12 5 13 8 26 5 28 -2
2 -6 -3 -10 -12z"/>
<path d="M3814 7105 c-10 -8 -14 -15 -8 -15 6 0 17 7 24 15 16 19 9 19 -16 0z"/>
<path d="M3545 6598 l-50 -53 53 50 c48 46 57 55 49 55 -1 0 -25 -24 -52 -52z"/>
<path d="M3380 8248 c-63 -32 -90 -77 -90 -147 0 -72 26 -115 83 -141 86 -39
161 -18 213 59 31 48 36 126 10 165 -49 76 -141 103 -216 64z m90 -118 c34
-18 44 -49 24 -71 -34 -38 -104 -15 -104 35 0 41 38 58 80 36z m71 -100 c17 0
9 -22 -20 -51 -57 -57 -74 -30 -24 37 13 17 24 37 24 45 1 8 4 4 6 -8 2 -13 9
-23 14 -23z"/>
<path d="M2704 7755 c-10 -8 -14 -15 -8 -15 6 0 17 7 24 15 16 19 9 19 -16 0z"/>
<path d="M5918 6843 c6 -2 18 -2 25 0 6 3 1 5 -13 5 -14 0 -19 -2 -12 -5z"/>
<path d="M2297 7473 c-4 -3 -7 -11 -7 -17 0 -6 5 -5 12 2 6 6 9 14 7 17 -3 3
-9 2 -12 -2z"/>
<path d="M4955 5861 c-38 -10 -96 -29 -127 -41 l-58 -21 17 -26 c10 -14 19
-21 21 -14 2 6 18 -1 39 -18 20 -16 42 -27 49 -24 8 3 17 -3 21 -13 4 -11 13
-25 20 -32 7 -7 13 -20 13 -27 0 -8 10 -19 22 -26 18 -10 20 -9 14 6 -11 29
-18 65 -13 65 2 0 15 -27 27 -60 20 -54 25 -60 50 -60 19 0 30 6 33 18 4 14 5
14 6 1 1 -21 71 -34 83 -16 6 9 8 8 8 -3 0 -9 20 -22 49 -33 165 -58 279 -222
269 -386 l-3 -60 35 -10 35 -10 -37 2 c-53 4 -49 -19 5 -25 23 -3 84 -22 136
-42 51 -21 105 -36 120 -34 23 3 27 10 38 58 6 30 12 69 12 86 l1 31 -107 6
c-58 4 -134 8 -167 8 -111 2 -11 15 133 18 74 1 137 4 141 6 10 6 -8 132 -30
205 -62 207 -269 405 -486 465 -32 9 -113 18 -179 21 -98 3 -133 1 -190 -15z
m94 -271 c0 -8 -8 1 -19 20 -11 19 -19 42 -19 50 0 8 8 -1 19 -20 11 -19 19
-42 19 -50z m754 -557 c-7 -2 -21 -2 -30 0 -10 3 -4 5 12 5 17 0 24 -2 18 -5z"/>
<path d="M5023 5540 c-23 -9 -30 -32 -38 -120 -6 -60 -22 -88 -78 -133 -45
-37 -133 -50 -152 -23 -20 26 -26 -79 -9 -164 31 -164 144 -275 308 -303 156
-27 327 72 398 230 33 73 32 217 -4 294 -31 67 -74 118 -136 159 -85 56 -226
85 -289 60z"/>
<path d="M4446 5455 c-3 -8 -1 -15 4 -15 18 0 10 -18 -10 -23 -11 -3 -20 -11
-20 -19 0 -10 2 -10 9 1 7 12 17 7 46 -23 32 -33 35 -41 29 -74 -10 -58 -21
-72 -29 -39 -4 15 -21 39 -38 53 l-32 27 -7 -34 c-4 -19 -8 -54 -10 -79 l-3
-45 159 -8 c88 -4 160 -6 162 -5 1 2 6 31 10 66 6 56 5 62 -12 62 -46 0 -101
25 -134 59 -77 81 -117 112 -124 96z m131 -157 c-3 -8 -6 -5 -6 6 -1 11 2 17
5 13 3 -3 4 -12 1 -19z"/>
<path d="M4543 5152 l-163 -2 0 -51 c0 -98 78 -289 157 -387 37 -46 94 -102
104 -102 3 0 26 29 52 64 52 71 94 113 62 61 -11 -16 -34 -50 -52 -74 -33 -43
-43 -68 -23 -56 9 6 47 62 127 188 25 39 39 49 29 20 -4 -12 1 -9 15 7 17 21
20 22 14 5 -15 -46 -99 -189 -131 -222 -38 -39 -40 -43 -21 -43 7 0 51 58 97
129 47 71 90 126 95 123 6 -3 -18 22 -52 56 -65 66 -106 137 -132 231 l-16 56
-162 -3z m231 -273 c-15 -16 -30 -29 -33 -29 -2 0 7 13 22 28 15 16 24 32 20
37 -5 4 -2 5 5 1 11 -6 7 -15 -14 -37z m-34 7 c0 -2 -8 -10 -17 -17 -16 -13
-17 -12 -4 4 13 16 21 21 21 13z m60 -16 c-13 -11 -25 -20 -28 -20 -3 0 3 9
13 20 10 11 23 20 28 20 6 0 0 -9 -13 -20z m50 -15 c7 -8 8 -15 2 -15 -5 0
-15 7 -22 15 -7 8 -8 15 -2 15 5 0 15 -7 22 -15z m-53 -39 c-12 -18 -24 -29
-26 -23 -2 5 -19 -8 -38 -29 l-34 -39 32 49 c18 28 35 44 37 38 2 -8 11 -3 24
13 28 36 31 31 5 -9z m-147 -150 c0 -2 -8 -10 -17 -17 -16 -13 -17 -12 -4 4
13 16 21 21 21 13z"/>
<path d="M4037 5143 c-11 -3 -16 -10 -13 -19 3 -8 11 -45 16 -82 6 -37 18 -98
27 -135 43 -192 202 -447 346 -554 26 -20 29 -20 60 -5 17 8 38 24 45 34 7 10
18 15 24 12 7 -4 8 -2 4 5 -5 7 13 35 43 70 28 32 51 65 51 74 0 38 -32 16
-120 -79 -86 -94 -118 -121 -108 -94 2 5 45 52 96 104 50 52 92 97 92 100 0 3
-7 3 -15 0 -11 -5 -13 -2 -9 11 10 24 -15 36 -40 19 -12 -7 -60 -53 -108 -101
-49 -47 -88 -82 -88 -76 0 19 148 164 195 191 15 8 12 16 -24 63 -49 63 -124
214 -140 280 -6 26 -14 78 -17 118 l-7 71 -146 -1 c-80 -1 -154 -3 -164 -6z
m343 -457 c0 -2 -8 -10 -17 -17 -16 -13 -17 -12 -4 4 13 16 21 21 21 13z m-67
-197 c-4 -13 -9 -17 -15 -11 -11 11 -3 32 12 32 4 0 6 -9 3 -21z"/>
<path d="M5862 5093 c-3 -65 -20 -160 -33 -184 -6 -13 -3 -18 11 -22 26 -7 26
-27 0 -27 -29 0 -24 -27 8 -39 l27 -11 -27 5 c-16 3 -28 4 -28 1 0 -7 195
-114 215 -118 14 -2 21 3 23 19 2 15 -7 28 -32 46 -20 13 -33 27 -29 30 3 4
21 -4 39 -18 18 -14 37 -25 42 -25 5 0 16 20 23 45 7 25 16 45 20 45 13 0 40
79 54 164 23 134 23 132 -31 140 -26 3 -99 6 -163 6 l-116 0 -3 -57z"/>
<path d="M5481 5036 c3 -3 40 -18 84 -35 44 -16 99 -39 122 -50 23 -12 49 -21
57 -21 8 0 17 -6 20 -12 3 -9 8 -8 16 4 16 26 13 32 -17 35 -16 2 -47 12 -69
23 -23 10 -52 21 -65 23 -13 2 -31 6 -39 10 -60 22 -122 35 -109 23z"/>
<path d="M5470 5011 c0 -5 7 -12 16 -15 14 -5 15 -4 4 9 -14 17 -20 19 -20 6z"/>
<path d="M5543 4969 c27 -16 77 -29 77 -20 0 4 -17 13 -39 19 -47 15 -62 15
-38 1z"/>
<path d="M5638 4933 c6 -2 10 -8 7 -13 -3 -4 11 -11 30 -14 19 -4 35 -11 35
-15 0 -5 11 -11 25 -13 19 -4 25 -1 25 13 0 11 -7 19 -17 19 -10 0 -31 7 -47
15 -15 8 -38 15 -50 14 -11 0 -15 -3 -8 -6z"/>
<path d="M5650 4864 c0 -5 65 -34 77 -34 4 0 2 5 -3 10 -11 11 -74 31 -74 24z"/>
<path d="M5790 4770 c0 -5 3 -10 8 -10 4 0 34 -20 66 -45 33 -24 63 -42 67
-39 5 3 22 -2 38 -11 17 -8 35 -15 41 -15 20 0 10 19 -17 33 -16 7 -56 28 -89
45 -34 18 -67 32 -73 32 -6 0 -11 5 -11 10 0 6 -7 10 -15 10 -8 0 -15 -4 -15
-10z"/>
<path d="M5967 4629 c7 -7 15 -10 18 -7 3 3 -2 9 -12 12 -14 6 -15 5 -6 -5z"/>
<path d="M6100 4619 c0 -5 5 -7 10 -4 6 3 10 8 10 11 0 2 -4 4 -10 4 -5 0 -10
-5 -10 -11z"/>
<path d="M5890 4591 c37 -32 61 -42 39 -15 -7 8 -26 22 -43 31 l-31 15 35 -31z"/>
<path d="M6069 4568 c-12 -18 -56 -72 -96 -120 -41 -49 -68 -85 -61 -82 21 10
138 145 165 192 29 50 24 56 -8 10z"/>
<path d="M4665 4509 c3 -3 -3 -13 -13 -22 -41 -38 -75 -75 -107 -120 -36 -48
-43 -63 -25 -52 6 4 10 -5 10 -20 0 -38 40 -31 53 10 5 17 18 39 27 50 10 11
29 40 41 65 13 25 32 52 43 61 22 18 15 38 -14 36 -10 -1 -17 -4 -15 -8z"/>
<path d="M4727 4473 c-4 -3 -7 -11 -7 -17 0 -6 5 -5 12 2 6 6 9 14 7 17 -3 3
-9 2 -12 -2z"/>
<path d="M4728 4439 c-33 -24 -141 -175 -136 -189 3 -11 83 93 83 109 0 18 75
90 98 94 19 4 19 4 2 5 -11 1 -32 -8 -47 -19z"/>
<path d="M4760 4429 c0 -5 5 -7 10 -4 6 3 10 8 10 11 0 2 -4 4 -10 4 -5 0 -10
-5 -10 -11z"/>
<path d="M4513 4358 c-26 -30 -35 -56 -21 -64 6 -4 8 -3 5 3 -3 5 5 26 19 46
28 42 27 48 -3 15z"/>
<path d="M4705 4351 c-3 -5 -1 -12 5 -16 5 -3 10 1 10 9 0 18 -6 21 -15 7z"/>
<path d="M5870 4330 c-8 -5 -12 -12 -9 -15 4 -3 12 1 19 10 14 17 11 19 -10 5z"/>
<path d="M4693 4308 c-21 -26 -34 -58 -24 -58 6 0 18 14 26 31 17 32 15 49 -2
27z"/>
<path d="M4650 4229 c0 -5 5 -7 10 -4 6 3 10 8 10 11 0 2 -4 4 -10 4 -5 0 -10
-5 -10 -11z"/>
<path d="M8671 5014 c0 -11 3 -14 6 -6 3 7 2 16 -1 19 -3 4 -6 -2 -5 -13z"/>
<path d="M8625 4929 c-4 -6 -5 -12 -2 -15 2 -3 7 2 10 11 7 17 1 20 -8 4z"/>
<path d="M6209 4383 c-13 -16 -12 -17 4 -4 16 13 21 21 13 21 -2 0 -10 -8 -17
-17z"/>
<path d="M3197 5073 c-4 -3 -7 -11 -7 -17 0 -6 5 -5 12 2 6 6 9 14 7 17 -3 3
-9 2 -12 -2z"/>
<path d="M8494 5080 c-11 -4 -26 -16 -34 -26 -14 -17 -13 -18 1 -6 14 10 18
10 22 -2 4 -9 14 -12 26 -9 25 7 28 -12 4 -26 -17 -9 -17 -10 0 -17 24 -9 29
-2 30 45 2 43 -12 54 -49 41z"/>
<path d="M3195 4313 c-27 -8 -54 -19 -59 -23 -7 -7 90 19 129 34 27 11 -26 3
-70 -11z"/>
<path d="M4030 4056 c0 -3 9 -10 20 -16 11 -6 20 -8 20 -6 0 3 -9 10 -20 16
-11 6 -20 8 -20 6z"/>
<path d="M4080 4026 c0 -3 9 -10 20 -16 11 -6 20 -8 20 -6 0 3 -9 10 -20 16
-11 6 -20 8 -20 6z"/>
<path d="M8405 4558 c-10 -24 2 -55 16 -41 6 6 6 18 0 34 -8 21 -10 22 -16 7z"/>
<path d="M6470 3705 c-11 -13 -10 -14 4 -9 9 3 16 10 16 15 0 13 -6 11 -20 -6z"/>
<path d="M6362 3612 c-11 -25 -11 -25 4 -10 9 9 15 21 13 27 -2 6 -10 -2 -17
-17z"/>
<path d="M6673 3758 c-20 -26 -26 -41 -15 -34 12 7 36 46 29 46 -3 0 -9 -6
-14 -12z"/>
<path d="M6534 3668 c-19 -21 -19 -21 6 -8 33 17 33 17 22 24 -5 3 -18 -4 -28
-16z"/>
<path d="M6600 3995 c-7 -9 -8 -15 -2 -15 5 0 12 7 16 15 3 8 4 15 2 15 -2 0
-9 -7 -16 -15z"/>
<path d="M6553 3511 c-30 -28 -53 -61 -53 -78 0 -4 7 4 17 17 9 14 30 40 46
58 38 40 33 41 -10 3z"/>
<path d="M6614 3508 l-19 -23 23 19 c12 11 22 21 22 23 0 8 -8 2 -26 -19z"/>
<path d="M6510 3409 c0 -6 -6 -9 -14 -6 -16 6 -56 -32 -60 -57 -1 -9 -18 -30
-37 -46 -19 -16 -29 -29 -23 -30 14 0 144 126 144 140 0 5 -2 10 -5 10 -3 0
-5 -5 -5 -11z"/>
<path d="M5555 3134 c-16 -13 -63 -43 -102 -66 -40 -23 -73 -46 -73 -50 0 -4
-9 -8 -20 -8 -11 0 -20 -4 -20 -10 0 -5 -8 -10 -18 -10 -10 0 -22 -4 -27 -8
-15 -13 -315 -129 -355 -137 -30 -7 -32 -9 -15 -16 16 -6 13 -8 -14 -8 -18 -1
-50 -6 -70 -11 -20 -6 -92 -19 -161 -30 -127 -20 -87 -20 96 -1 88 9 209 36
229 52 6 4 60 23 120 43 155 50 420 202 460 263 20 30 8 29 -30 -3z m-562
-301 c-7 -2 -19 -2 -25 0 -7 3 -2 5 12 5 14 0 19 -2 13 -5z"/>
<path d="M5482 2996 c-51 -24 -95 -46 -99 -49 -13 -14 23 -6 66 13 24 11 46
18 49 15 3 -3 1 -5 -4 -5 -5 0 -20 -10 -34 -21 -37 -31 -3 -12 68 38 96 68 86
70 -46 9z"/>
<path d="M5730 2900 c-8 -5 -12 -12 -9 -15 4 -3 12 1 19 10 14 17 11 19 -10 5z"/>
<path d="M5315 2890 c-3 -5 -1 -10 4 -10 6 0 11 5 11 10 0 6 -2 10 -4 10 -3 0
-8 -4 -11 -10z"/>
<path d="M7360 3524 c-48 -21 -97 -70 -111 -111 -21 -66 13 -154 74 -191 60
-37 184 -2 237 65 14 18 20 41 20 78 0 44 -5 59 -34 97 -55 72 -116 92 -186
62z"/>
<path d="M7398 3193 c12 -2 30 -2 40 0 9 3 -1 5 -23 4 -22 0 -30 -2 -17 -4z"/>
<path d="M6987 3793 c-4 -3 -7 -11 -7 -17 0 -6 5 -5 12 2 6 6 9 14 7 17 -3 3
-9 2 -12 -2z"/>
<path d="M3109 3043 l-24 -28 28 24 c25 23 32 31 24 31 -2 0 -14 -12 -28 -27z"/>
<path d="M6215 2270 c3 -5 8 -10 11 -10 2 0 4 5 4 10 0 6 -5 10 -11 10 -5 0
-7 -4 -4 -10z"/>
<path d="M1768 9433 c7 -3 16 -2 19 1 4 3 -2 6 -13 5 -11 0 -14 -3 -6 -6z"/>
<path d="M8550 9418 c0 -4 15 -8 34 -8 18 0 49 -3 67 -6 19 -4 31 -4 28 -1 -9
11 -129 24 -129 15z"/>
<path d="M1668 9413 c18 -2 45 -2 60 0 15 2 0 4 -33 4 -33 0 -45 -2 -27 -4z"/>
<path d="M6902 9340 c0 -14 2 -19 5 -12 2 6 2 18 0 25 -3 6 -5 1 -5 -13z"/>
<path d="M8742 9320 c0 -19 2 -27 5 -17 2 9 2 25 0 35 -3 9 -5 1 -5 -18z"/>
<path d="M8552 9290 c0 -19 2 -27 5 -17 2 9 2 25 0 35 -3 9 -5 1 -5 -18z"/>
<path d="M8742 9250 c0 -19 2 -27 5 -17 2 9 2 25 0 35 -3 9 -5 1 -5 -18z"/>
<path d="M8134 9222 c3 -6 19 -12 36 -14 37 -6 27 7 -13 16 -17 4 -26 3 -23
-2z"/>
<path d="M8708 9223 c7 -3 16 -2 19 1 4 3 -2 6 -13 5 -11 0 -14 -3 -6 -6z"/>
<path d="M8968 9213 c7 -3 16 -2 19 1 4 3 -2 6 -13 5 -11 0 -14 -3 -6 -6z"/>
<path d="M7509 9183 c5 -25 6 -26 9 -6 3 18 11 23 45 26 41 3 40 4 -9 5 -51 2
-51 2 -45 -25z"/>
<path d="M8363 9203 c15 -2 39 -2 55 0 15 2 2 4 -28 4 -30 0 -43 -2 -27 -4z"/>
<path d="M8525 9200 c3 -5 8 -10 11 -10 2 0 4 5 4 10 0 6 -5 10 -11 10 -5 0
-7 -4 -4 -10z"/>
<path d="M7703 9140 c0 -36 2 -50 4 -32 2 17 2 47 0 65 -2 17 -4 3 -4 -33z"/>
<path d="M8342 9100 c-2 -79 -1 -83 15 -68 12 13 14 20 5 30 -6 8 -12 38 -15
68 -2 42 -4 35 -5 -30z"/>
<path d="M4858 9123 c23 -2 59 -2 80 0 20 2 1 4 -43 4 -44 0 -61 -2 -37 -4z"/>
<path d="M5443 9113 c9 -2 25 -2 35 0 9 3 1 5 -18 5 -19 0 -27 -2 -17 -5z"/>
<path d="M8490 9068 l-55 -52 48 28 c36 22 47 25 47 13 0 -9 -6 -17 -12 -19
-7 -3 -3 -7 8 -10 20 -5 21 -3 13 30 -5 23 -4 41 3 49 21 26 2 11 -52 -39z"/>
<path d="M5518 9103 c12 -2 32 -2 45 0 12 2 2 4 -23 4 -25 0 -35 -2 -22 -4z"/>
<path d="M7511 9094 c0 -11 3 -14 6 -6 3 7 2 16 -1 19 -3 4 -6 -2 -5 -13z"/>
<path d="M4401 9084 c0 -11 3 -14 6 -6 3 7 2 16 -1 19 -3 4 -6 -2 -5 -13z"/>
<path d="M6448 9065 c-2 -19 0 -35 4 -35 4 0 8 16 8 35 0 19 -2 35 -4 35 -2 0
-6 -16 -8 -35z"/>
<path d="M5908 9043 c6 -2 18 -2 25 0 6 3 1 5 -13 5 -14 0 -19 -2 -12 -5z"/>
<path d="M5958 9033 c6 -2 18 -2 25 0 6 3 1 5 -13 5 -14 0 -19 -2 -12 -5z"/>
<path d="M6030 9030 c0 -5 5 -10 11 -10 5 0 7 5 4 10 -3 6 -8 10 -11 10 -2 0
-4 -4 -4 -10z"/>
<path d="M6690 9028 c0 -5 11 -8 25 -8 14 0 25 3 25 8 0 4 -11 7 -25 7 -14 0
-25 -3 -25 -7z"/>
<path d="M7676 9023 c-6 -14 -5 -15 5 -6 7 7 10 15 7 18 -3 3 -9 -2 -12 -12z"/>
<path d="M2648 9013 c6 -2 18 -2 25 0 6 3 1 5 -13 5 -14 0 -19 -2 -12 -5z"/>
<path d="M8731 9004 c0 -11 3 -14 6 -6 3 7 2 16 -1 19 -3 4 -6 -2 -5 -13z"/>
<path d="M9028 9013 c17 -2 47 -2 65 0 17 2 3 4 -33 4 -36 0 -50 -2 -32 -4z"/>
<path d="M1423 9003 c15 -2 37 -2 50 0 12 2 0 4 -28 4 -27 0 -38 -2 -22 -4z"/>
<path d="M8309 8993 c-13 -16 -12 -17 4 -4 9 7 17 15 17 17 0 8 -8 3 -21 -13z"/>
<path d="M7922 8980 c0 -14 2 -19 5 -12 2 6 2 18 0 25 -3 6 -5 1 -5 -13z"/>
<path d="M8888 8993 c6 -2 18 -2 25 0 6 3 1 5 -13 5 -14 0 -19 -2 -12 -5z"/>
<path d="M7691 8940 c-23 -27 -36 -47 -28 -44 13 5 83 94 74 94 -2 0 -23 -22
-46 -50z"/>
<path d="M7955 8880 c-21 -22 -35 -40 -30 -40 9 0 81 80 73 80 -2 0 -22 -18
-43 -40z"/>
<path d="M8122 8885 c0 -16 2 -22 5 -12 2 9 2 23 0 30 -3 6 -5 -1 -5 -18z"/>
<path d="M8295 8889 c-4 -6 -5 -12 -2 -15 2 -3 7 2 10 11 7 17 1 20 -8 4z"/>
<path d="M2450 8871 c0 -4 5 -22 11 -40 8 -23 14 -29 23 -22 8 7 24 7 44 1 30
-8 32 -7 32 16 0 17 5 24 20 24 11 0 20 7 20 15 0 12 -15 15 -75 15 -41 0 -75
-4 -75 -9z"/>
<path d="M6540 8820 c-12 -23 -19 -45 -16 -48 3 -3 6 0 6 7 0 7 4 10 8 7 9 -5
35 64 27 72 -2 2 -13 -15 -25 -38z"/>
<path d="M8549 8843 c-13 -16 -12 -17 4 -4 9 7 17 15 17 17 0 8 -8 3 -21 -13z"/>
<path d="M7879 8793 c-18 -21 -30 -34 -25 -30 5 4 20 -3 33 -15 18 -17 23 -33
25 -77 1 -47 2 -50 5 -16 7 63 -5 125 -24 125 -13 0 -12 5 7 25 13 14 21 25
19 25 -3 0 -21 -17 -40 -37z"/>
<path d="M8736 8802 l-19 -27 24 22 c12 12 21 24 18 27 -2 2 -13 -8 -23 -22z"/>
<path d="M2448 8783 c7 -3 16 -2 19 1 4 3 -2 6 -13 5 -11 0 -14 -3 -6 -6z"/>
<path d="M8635 8780 l-60 -7 63 -1 c36 -1 62 2 62 8 0 6 -1 9 -2 8 -2 -1 -30
-4 -63 -8z"/>
<path d="M9560 8786 c0 -2 7 -6 15 -10 8 -3 15 -1 15 4 0 6 -7 10 -15 10 -8 0
-15 -2 -15 -4z"/>
<path d="M7620 8749 c35 -6 66 -12 68 -14 2 -2 -2 -14 -8 -27 -10 -18 -5 -16
24 11 20 19 36 35 36 36 0 1 -42 2 -92 2 l-93 1 65 -9z"/>
<path d="M7814 8738 l-19 -23 23 19 c21 18 27 26 19 26 -2 0 -12 -10 -23 -22z"/>
<path d="M8267 8753 c43 -6 60 -27 39 -48 -29 -30 -17 -29 14 0 39 37 26 56
-39 53 -35 -1 -38 -2 -14 -5z"/>
<path d="M2660 8715 c0 -18 5 -25 20 -25 11 0 20 7 20 15 0 8 -9 19 -20 25
-18 9 -20 8 -20 -15z"/>
<path d="M7533 8680 c0 -25 2 -35 4 -22 2 12 2 32 0 45 -2 12 -4 2 -4 -23z"/>
<path d="M8725 8693 c-16 -14 -23 -24 -15 -21 8 3 23 -1 33 -10 16 -14 17 -13
17 21 0 21 -1 37 -2 37 -2 0 -16 -12 -33 -27z"/>
<path d="M2546 8686 c-4 -17 -15 -26 -36 -31 -17 -4 -28 -11 -24 -16 3 -5 -1
-9 -9 -9 -8 0 -20 -13 -25 -30 -9 -26 -8 -31 9 -40 28 -15 39 -4 39 38 0 32 4
39 30 50 21 10 30 21 30 38 0 31 -6 31 -14 0z"/>
<path d="M7719 8643 l-34 -38 38 34 c20 19 37 36 37 38 0 8 -8 0 -41 -34z"/>
<path d="M2160 8660 c0 -5 5 -10 10 -10 6 0 10 5 10 10 0 6 -4 10 -10 10 -5 0
-10 -4 -10 -10z"/>
<path d="M8620 8595 c-11 -13 -4 -15 56 -13 53 1 59 2 24 5 -24 3 -50 9 -56
14 -7 6 -16 4 -24 -6z"/>
<path d="M18 8573 c12 -2 32 -2 45 0 12 2 2 4 -23 4 -25 0 -35 -2 -22 -4z"/>
<path d="M8408 8573 c6 -2 18 -2 25 0 6 3 1 5 -13 5 -14 0 -19 -2 -12 -5z"/>
<path d="M8490 8570 c-8 -5 -12 -12 -9 -15 4 -3 12 1 19 10 14 17 11 19 -10 5z"/>
<path d="M7712 8545 c0 -16 2 -22 5 -12 2 9 2 23 0 30 -3 6 -5 -1 -5 -18z"/>
<path d="M8540 8521 c-5 -11 -10 -35 -9 -53 1 -31 2 -31 10 10 4 23 11 47 14
52 3 6 4 10 1 10 -3 0 -10 -9 -16 -19z"/>
<path d="M8089 8473 l-24 -28 28 24 c15 14 27 26 27 28 0 8 -8 1 -31 -24z"/>
<path d="M1940 8463 c0 -13 5 -23 10 -23 13 0 13 11 0 30 -8 12 -10 11 -10 -7z"/>
<path d="M1976 8461 c-4 -7 -5 -15 -2 -18 9 -9 19 4 14 18 -4 11 -6 11 -12 0z"/>
<path d="M8306 8394 c-37 -32 -30 -39 9 -9 16 13 27 26 25 29 -3 2 -18 -7 -34
-20z"/>
<path d="M8673 8342 c1 -36 5 -48 14 -45 7 3 13 9 13 15 0 5 5 6 11 3 21 -14
4 48 -18 62 -21 14 -21 13 -20 -35z"/>
<path d="M768 8373 c6 -2 18 -2 25 0 6 3 1 5 -13 5 -14 0 -19 -2 -12 -5z"/>
<path d="M8203 8363 c9 -2 25 -2 35 0 9 3 1 5 -18 5 -19 0 -27 -2 -17 -5z"/>
<path d="M1970 8349 c0 -5 5 -7 10 -4 6 3 10 8 10 11 0 2 -4 4 -10 4 -5 0 -10
-5 -10 -11z"/>
<path d="M8563 8320 c-13 -31 -21 -40 -40 -40 -27 0 -63 -16 -63 -29 0 -4 14
-5 31 -3 20 3 34 0 40 -9 7 -11 9 -10 9 3 0 18 9 21 83 33 42 7 45 14 17 40
-11 10 -20 24 -20 32 0 7 -9 13 -21 13 -15 0 -25 -11 -36 -40z"/>
<path d="M8320 8305 c-8 -9 -8 -15 -2 -15 6 0 13 -8 15 -17 2 -10 4 -3 3 14
-1 38 0 37 -16 18z"/>
<path d="M8740 8300 c0 -11 5 -20 10 -20 6 0 10 9 10 20 0 11 -4 20 -10 20 -5
0 -10 -9 -10 -20z"/>
<path d="M8122 8260 c0 -14 2 -19 5 -12 2 6 2 18 0 25 -3 6 -5 1 -5 -13z"/>
<path d="M2150 8260 c0 -5 5 -10 10 -10 6 0 10 5 10 10 0 6 -4 10 -10 10 -5 0
-10 -4 -10 -10z"/>
<path d="M1772 8170 c0 -14 2 -19 5 -12 2 6 2 18 0 25 -3 6 -5 1 -5 -13z"/>
<path d="M7883 8178 c-22 -29 -24 -41 -3 -20 12 13 20 25 17 28 -2 2 -9 -1
-14 -8z"/>
<path d="M2320 8146 c0 -2 7 -6 15 -10 8 -3 15 -1 15 4 0 6 -7 10 -15 10 -8 0
-15 -2 -15 -4z"/>
<path d="M7823 8110 c-6 -16 -8 -30 -3 -30 4 0 13 14 19 30 5 17 7 30 3 30 -4
0 -13 -13 -19 -30z"/>
<path d="M8528 8075 c-2 -27 -1 -58 4 -67 17 -34 9 -76 -18 -97 -15 -12 -23
-21 -18 -21 4 0 18 10 31 22 20 19 25 20 33 8 14 -22 13 72 -1 107 -7 15 -15
44 -19 63 -6 35 -7 34 -12 -15z"/>
<path d="M8753 8080 c-13 -6 -23 -18 -23 -30 0 -29 17 -25 35 10 9 17 14 30
13 29 -2 0 -13 -4 -25 -9z"/>
<path d="M2342 8060 c0 -14 2 -19 5 -12 2 6 2 18 0 25 -3 6 -5 1 -5 -13z"/>
<path d="M8142 8060 c2 -19 8 -24 23 -22 20 3 20 2 -1 -15 -28 -24 -54 -68
-54 -90 1 -10 7 -3 16 17 23 53 43 70 83 70 l36 0 -29 15 c-15 8 -34 15 -42
15 -7 0 -18 8 -24 18 -9 15 -10 14 -8 -8z"/>
<path d="M8278 7968 c3 -21 7 -26 13 -17 13 20 11 36 -4 42 -10 4 -12 -3 -9
-25z"/>
<path d="M7916 7974 c-9 -8 -16 -23 -16 -31 0 -9 1 -14 3 -12 15 21 37 59 33
59 -3 0 -12 -7 -20 -16z"/>
<path d="M8311 7974 c0 -11 3 -14 6 -6 3 7 2 16 -1 19 -3 4 -6 -2 -5 -13z"/>
<path d="M8391 7958 c-1 -46 27 -78 67 -77 l27 1 -31 9 c-31 9 -50 35 -57 79
-3 17 -5 13 -6 -12z"/>
<path d="M8137 7879 c7 -7 15 -10 18 -7 3 3 -2 9 -12 12 -14 6 -15 5 -6 -5z"/>
<path d="M1571 7854 c0 -11 3 -14 6 -6 3 7 2 16 -1 19 -3 4 -6 -2 -5 -13z"/>
<path d="M8740 7797 c0 -8 -10 -19 -22 -25 -23 -10 -23 -11 5 -11 22 -1 27 3
27 24 0 14 -2 25 -5 25 -3 0 -5 -6 -5 -13z"/>
<path d="M9165 7780 c-3 -5 -1 -10 4 -10 6 0 11 5 11 10 0 6 -2 10 -4 10 -3 0
-8 -4 -11 -10z"/>
<path d="M8288 7753 c6 -2 18 -2 25 0 6 3 1 5 -13 5 -14 0 -19 -2 -12 -5z"/>
<path d="M8341 7756 c10 -9 199 -15 199 -6 0 6 -42 10 -102 10 -56 0 -99 -2
-97 -4z"/>
<path d="M8183 7743 c15 -2 39 -2 55 0 15 2 2 4 -28 4 -30 0 -43 -2 -27 -4z"/>
<path d="M1583 7705 c0 -22 2 -30 4 -17 2 12 2 30 0 40 -3 9 -5 -1 -4 -23z"/>
<path d="M8073 7711 c12 -15 24 -28 26 -31 2 -3 1 5 -2 18 -3 14 0 25 11 31
12 7 6 9 -21 8 l-37 -1 23 -25z"/>
<path d="M8504 7615 c-23 -24 -24 -26 -9 -55 26 -50 67 -63 105 -32 28 23 30
80 4 99 -29 21 -72 16 -100 -12z"/>
<path d="M8433 7333 c20 -2 54 -2 75 0 20 2 3 4 -38 4 -41 0 -58 -2 -37 -4z"/>
<path d="M9217 7143 c18 -2 50 -2 70 0 21 2 7 4 -32 4 -38 0 -55 -2 -38 -4z"/>
<path d="M23 6723 c15 -2 37 -2 50 0 12 2 0 4 -28 4 -27 0 -38 -2 -22 -4z"/>
<path d="M7 6313 c7 -2 19 -2 26 0 6 3 1 5 -13 5 -14 0 -19 -2 -13 -5z"/>
<path d="M1098 5683 c6 -2 18 -2 25 0 6 3 1 5 -13 5 -14 0 -19 -2 -12 -5z"/>
<path d="M1221 5544 c0 -11 3 -14 6 -6 3 7 2 16 -1 19 -3 4 -6 -2 -5 -13z"/>
<path d="M8908 5538 c-12 -18 -16 -82 -21 -313 -3 -159 -11 -330 -17 -380 -26
-221 -114 -596 -180 -774 -16 -42 -45 -120 -65 -175 -57 -153 -213 -467 -310
-621 -152 -243 -275 -405 -487 -641 -461 -515 -1064 -877 -1755 -1054 -296
-76 -499 -106 -805 -121 -383 -19 -777 17 -1098 102 -121 32 -357 108 -465
151 -117 46 -430 201 -528 261 -313 192 -440 291 -730 567 -104 99 -334 361
-392 446 -22 32 -59 86 -83 118 -23 32 -68 103 -98 157 -54 95 -77 122 -69 79
3 -15 -2 -20 -20 -20 -20 0 -24 -7 -31 -42 -7 -39 -8 -41 -15 -18 -5 16 -6 9
-2 -20 3 -25 9 -53 14 -62 13 -24 8 -80 -9 -97 -8 -8 -9 -17 -4 -20 5 -3 12
-13 15 -21 4 -10 6 -9 4 5 -1 11 9 37 22 58 17 28 22 47 18 70 -5 30 -5 30 5
7 40 -97 98 -187 109 -169 5 8 12 8 28 0 23 -13 29 -23 7 -15 -24 9 -27 -35
-4 -58 l21 -21 -6 31 c-5 23 -3 32 7 32 14 0 46 -57 46 -80 0 -7 6 -18 13 -24
7 -6 21 -38 31 -71 21 -74 36 -106 48 -99 4 3 8 -4 8 -16 0 -12 5 -18 10 -15
14 9 12 -18 -2 -35 -7 -8 -3 -6 9 4 13 10 20 22 18 26 -8 12 24 5 37 -8 8 -8
7 -17 -6 -36 -9 -14 -16 -29 -16 -33 0 -4 5 -1 10 7 8 13 10 12 10 -2 0 -10 6
-18 13 -18 8 0 22 -10 33 -21 10 -12 29 -25 42 -30 31 -12 38 -36 16 -60 -10
-11 -14 -19 -9 -18 30 7 154 -72 220 -141 43 -45 119 -103 135 -104 3 0 38
-28 79 -63 41 -35 80 -63 87 -63 7 0 14 -4 16 -8 2 -4 40 -34 86 -67 59 -42
79 -61 70 -68 -9 -6 -8 -7 5 -3 16 5 56 -16 165 -85 12 -7 22 -21 23 -29 0 -9
3 -10 5 -3 5 11 131 -41 184 -76 49 -33 267 -129 360 -159 52 -17 147 -49 211
-71 123 -42 317 -88 484 -115 203 -33 518 -66 617 -66 179 1 557 34 738 65 58
10 86 12 89 4 2 -6 8 -4 15 4 6 8 90 34 186 57 165 40 532 155 593 186 21 12
27 12 28 2 0 -7 3 -5 7 4 4 9 72 49 152 88 193 96 334 181 510 310 171 124
219 165 367 311 235 231 423 448 573 662 33 48 65 87 71 87 5 0 9 7 9 15 0 18
34 80 117 213 36 57 76 131 90 165 14 34 33 76 43 92 39 66 190 447 220 555
55 200 121 475 135 565 15 96 24 556 12 660 -3 22 -8 73 -12 113 -6 59 -11 72
-25 72 -10 0 -24 -10 -32 -22z m-7137 -2421 c-10 -9 -11 -8 -5 6 3 10 9 15 12
12 3 -3 0 -11 -7 -18z"/>
<path d="M1212 5490 c0 -19 2 -27 5 -17 2 9 2 25 0 35 -3 9 -5 1 -5 -18z"/>
<path d="M1718 3486 c-2 -19 -1 -33 3 -30 4 2 10 0 14 -6 3 -5 13 -10 20 -10
11 0 12 6 6 23 -5 12 -14 21 -20 20 -6 -2 -8 3 -5 11 3 8 1 17 -4 20 -6 3 -12
-10 -14 -28z"/>
<path d="M1365 3340 c10 -11 20 -41 23 -69 4 -42 1 -50 -19 -65 -30 -21 -87
-21 -111 1 -14 12 -21 14 -30 5 -8 -8 -2 -16 23 -31 47 -29 83 -27 121 8 28
25 33 36 32 73 -1 44 -27 98 -47 98 -5 0 -2 -9 8 -20z"/>
<path d="M8342 3075 c0 -16 2 -22 5 -12 2 9 2 23 0 30 -3 6 -5 -1 -5 -18z"/>
<path d="M1712 3043 c-16 -6 -36 -43 -24 -43 6 0 17 11 26 25 9 14 15 25 14
24 -2 0 -9 -3 -16 -6z"/>
<path d="M1649 2983 c-13 -16 -12 -17 4 -4 9 7 17 15 17 17 0 8 -8 3 -21 -13z"/>
<path d="M1582 2913 c-23 -25 -42 -50 -42 -55 0 -4 -3 -8 -7 -8 -14 -1 -56
-40 -50 -46 3 -4 13 1 22 10 9 9 21 13 27 10 6 -4 8 -2 5 3 -4 6 0 16 8 23 15
12 88 110 82 110 -2 0 -22 -21 -45 -47z"/>
<path d="M1769 2813 c-13 -16 -12 -17 4 -4 16 13 21 21 13 21 -2 0 -10 -8 -17
-17z"/>
<path d="M1515 2800 c-3 -5 -1 -10 4 -10 6 0 11 5 11 10 0 6 -2 10 -4 10 -3 0
-8 -4 -11 -10z"/>
<path d="M1342 2683 c-7 -2 -17 -14 -23 -25 -9 -17 -8 -18 9 -9 39 21 51 49
14 34z"/>
<path d="M8180 2645 c-41 -19 -50 -31 -50 -67 0 -16 -4 -28 -10 -28 -18 0 -11
-141 9 -186 31 -68 111 -114 197 -114 37 0 48 19 33 54 -11 23 -44 36 -94 36
-29 0 -55 30 -62 73 l-5 36 53 3 54 3 11 -55 11 -55 2 88 1 87 -66 0 c-56 0
-65 2 -60 16 3 9 6 22 6 30 0 11 16 14 66 14 36 0 63 -4 60 -9 -4 -5 -4 -16 0
-24 4 -12 14 -12 64 -2 l59 12 6 -28 c8 -35 75 -102 112 -112 16 -4 15 -6 -4
-12 -13 -4 -23 -12 -23 -17 0 -5 -13 -7 -29 -3 -60 13 -95 -34 -59 -80 44 -56
111 -69 184 -36 56 25 80 69 93 170 l11 83 -35 41 c-19 22 -35 44 -35 48 0 4
-19 17 -43 28 -55 27 -128 28 -150 3 -23 -25 -114 -30 -131 -7 -17 23 -131 30
-176 10z m444 -80 c13 -14 26 -34 29 -45 4 -16 0 -20 -21 -20 -15 0 -44 5 -64
11 -30 8 -38 15 -38 32 0 51 56 63 94 22z m26 -178 c0 -13 -3 -17 -8 -11 -4 6
-16 16 -27 23 -19 11 -19 12 4 5 17 -4 21 -3 16 6 -5 9 -4 11 3 6 7 -4 12 -17
12 -29z m-10 -34 c0 -1 -8 -7 -18 -12 -13 -7 -19 -6 -19 2 0 7 9 13 19 13 10
0 18 -1 18 -3z"/>
<path d="M1778 2521 c-10 -13 -10 -14 1 -5 8 7 39 9 84 6 40 -2 70 -2 67 0 -3
3 -35 8 -72 11 -55 4 -70 2 -80 -12z"/>
<path d="M1906 2337 c3 -10 9 -15 12 -12 3 3 0 11 -7 18 -10 9 -11 8 -5 -6z"/>
<path d="M1328 2313 c6 -2 18 -2 25 0 6 3 1 5 -13 5 -14 0 -19 -2 -12 -5z"/>
<path d="M2141 2274 c0 -11 3 -14 6 -6 3 7 2 16 -1 19 -3 4 -6 -2 -5 -13z"/>
<path d="M7917 2205 c-7 -31 -2 -353 5 -361 3 -2 12 2 21 9 14 10 17 32 19
125 1 76 -2 116 -10 124 -7 7 -12 28 -13 48 -1 19 -4 46 -8 60 l-8 25 -6 -30z"/>
<path d="M1576 2175 c-3 -9 -6 -28 -6 -41 0 -22 4 -25 33 -22 27 2 33 8 35 31
3 21 -1 27 -15 27 -11 0 -24 5 -30 11 -7 7 -12 6 -17 -6z m19 -25 c3 -5 1 -10
-4 -10 -6 0 -11 5 -11 10 0 6 2 10 4 10 3 0 8 -4 11 -10z"/>
<path d="M2115 2124 c-18 -16 -22 -22 -9 -15 18 9 53 42 43 41 -2 -1 -17 -12
-34 -26z"/>
<path d="M8303 2113 c9 -2 25 -2 35 0 9 3 1 5 -18 5 -19 0 -27 -2 -17 -5z"/>
<path d="M1371 2073 c0 -21 3 -31 6 -23 3 8 11 18 17 22 7 5 7 8 -3 8 -7 0
-11 6 -7 15 3 8 1 15 -4 15 -6 0 -10 -17 -9 -37z"/>
<path d="M1451 2100 c31 -4 61 -10 66 -13 5 -3 10 0 10 8 0 12 -15 15 -66 14
l-66 -2 56 -7z"/>
<path d="M2003 2103 c15 -2 39 -2 55 0 15 2 2 4 -28 4 -30 0 -43 -2 -27 -4z"/>
<path d="M1548 2070 c2 -16 6 -30 8 -30 2 0 4 14 4 30 0 17 -4 30 -8 30 -5 0
-7 -13 -4 -30z"/>
<path d="M8123 2030 c0 -41 2 -58 4 -37 2 20 2 54 0 75 -2 20 -4 3 -4 -38z"/>
<path d="M1960 2042 l5 -47 3 39 c2 21 0 42 -5 47 -4 4 -6 -13 -3 -39z"/>
<path d="M8274 2055 c-25 -38 -1 -116 28 -87 13 13 28 81 21 98 -8 22 -31 17
-49 -11z"/>
<path d="M1372 2005 c0 -16 2 -22 5 -12 2 9 2 23 0 30 -3 6 -5 -1 -5 -18z"/>
<path d="M2142 1990 c0 -19 2 -27 5 -17 2 9 2 25 0 35 -3 9 -5 1 -5 -18z"/>
<path d="M1792 1980 c0 -19 2 -27 5 -17 2 9 2 25 0 35 -3 9 -5 1 -5 -18z"/>
<path d="M7704 1970 c3 -14 6 -56 6 -94 0 -38 3 -67 6 -63 11 11 6 159 -7 171
-9 8 -10 5 -5 -14z"/>
<path d="M1380 1908 c0 -5 39 -7 88 -7 91 2 81 6 -26 11 -34 2 -62 0 -62 -4z"/>
<path d="M2319 1903 c-8 -9 -9 -14 -2 -10 6 4 14 1 16 -5 3 -7 6 -3 6 10 1 26
-2 27 -20 5z"/>
<path d="M1971 1886 c-7 -8 -11 -32 -8 -53 l4 -38 1 42 c1 28 8 45 20 52 9 6
12 11 6 11 -6 0 -17 -6 -23 -14z"/>
<path d="M2021 1896 c7 -8 129 -10 136 -3 3 4 -27 7 -67 7 -40 0 -71 -2 -69
-4z"/>
<path d="M1358 1877 c-5 -10 -8 -42 -7 -70 0 -45 2 -48 10 -27 6 13 9 45 7 70
-2 31 -5 39 -10 27z"/>
<path d="M2170 1860 c-8 -5 -12 -12 -9 -15 4 -3 12 1 19 10 14 17 11 19 -10 5z"/>
<path d="M2131 1817 c-13 -21 -12 -21 5 -5 10 10 16 20 13 22 -3 3 -11 -5 -18
-17z"/>
<path d="M1543 1805 c-3 -9 -3 -18 -1 -21 3 -3 8 4 11 16 6 23 -1 27 -10 5z"/>
<path d="M2524 1758 l-19 -23 23 19 c21 18 27 26 19 26 -2 0 -12 -10 -23 -22z"/>
<path d="M1337 1733 c-4 -3 -7 -11 -7 -17 0 -6 5 -5 12 2 6 6 9 14 7 17 -3 3
-9 2 -12 -2z"/>
<path d="M2130 1715 c-7 -9 -8 -15 -2 -15 5 0 12 7 16 15 3 8 4 15 2 15 -2 0
-9 -7 -16 -15z"/>
<path d="M1771 1699 c-5 -13 -6 -28 -3 -34 3 -5 9 4 14 20 9 36 2 46 -11 14z"/>
<path d="M1372 1667 c-6 -7 -7 -19 -3 -26 6 -9 10 -5 13 13 6 30 5 31 -10 13z"/>
<path d="M1772 1625 c0 -16 2 -22 5 -12 2 9 2 23 0 30 -3 6 -5 -1 -5 -18z"/>
<path d="M1331 1627 c-8 -10 -7 -14 4 -14 8 0 15 6 15 14 0 7 -2 13 -4 13 -2
0 -9 -6 -15 -13z"/>
<path d="M1561 1604 c0 -11 3 -14 6 -6 3 7 2 16 -1 19 -3 4 -6 -2 -5 -13z"/>
<path d="M1862 1559 c-35 -33 -55 -56 -45 -51 18 11 121 112 113 112 -3 0 -34
-27 -68 -61z"/>
<path d="M1952 1475 c0 -16 2 -22 5 -12 2 9 2 23 0 30 -3 6 -5 -1 -5 -18z"/>
<path d="M1953 1380 c0 -36 2 -50 4 -32 2 17 2 47 0 65 -2 17 -4 3 -4 -33z"/>
<path d="M1562 1330 c0 -19 2 -27 5 -17 2 9 2 25 0 35 -3 9 -5 1 -5 -18z"/>
<path d="M6260 1028 l0 -36 -100 2 c-89 1 -100 3 -100 19 0 10 -4 16 -8 13 -4
-2 -52 -2 -105 2 -54 4 -101 4 -105 0 -4 -4 -47 -10 -96 -14 -70 -5 -90 -4
-97 7 -6 10 -9 10 -9 2 0 -10 -27 -13 -100 -13 -82 0 -100 3 -100 15 0 8 -4
15 -10 15 -5 0 -10 -4 -10 -10 0 -15 -177 -13 -183 3 -3 7 -6 5 -6 -5 -1 -10
-2 -18 -3 -18 -2 -1 -41 -3 -88 -6 -47 -3 -91 -7 -97 -9 -7 -3 -13 1 -13 7 0
7 -19 8 -59 4 -81 -9 -142 2 -149 26 -3 13 -7 16 -12 8 -4 -7 -43 -14 -94 -17
-50 -4 -86 -10 -86 -16 0 -6 -7 -2 -15 9 -13 17 -14 17 -15 2 0 -16 -11 -18
-94 -18 -66 0 -96 4 -99 13 -4 8 -6 6 -6 -4 -1 -16 -71 -29 -162 -29 -37 0
-39 2 -40 33 -1 25 -2 28 -7 11 -7 -20 -13 -21 -104 -20 -84 1 -98 -1 -98 -15
0 -12 -12 -18 -42 -22 -143 -21 -138 -21 -153 -1 -9 12 -14 14 -15 6 0 -10
-23 -12 -97 -10 l-98 3 -3 27 -3 27 -20 -20 c-18 -18 -31 -20 -95 -17 -61 2
-74 0 -74 -12 0 -8 -4 -21 -8 -28 -10 -16 -111 -42 -162 -42 -21 0 -41 -6 -43
-12 -3 -7 -6 6 -6 29 l-1 41 -52 -14 c-29 -7 -68 -14 -85 -14 -22 0 -33 -5
-33 -14 0 -8 -6 -17 -12 -19 -7 -3 29 -6 80 -6 90 -1 92 -2 92 -24 0 -30 9
-38 29 -28 33 18 366 -25 381 -49 8 -12 10 -11 10 8 0 21 3 22 95 22 89 0 96
-2 104 -21 7 -20 14 -22 101 -20 68 2 95 -1 101 -11 6 -9 9 -6 9 10 0 23 1 24
99 20 85 -2 101 -6 104 -20 5 -16 18 -18 106 -18 56 0 101 4 101 8 0 5 95 9
210 10 l210 1 0 -27 c1 -24 2 -25 11 -9 9 16 22 18 95 15 46 -2 84 -7 85 -13
0 -5 4 0 9 12 9 21 14 22 107 20 94 -2 97 -3 104 -27 4 -14 7 -20 8 -13 1 14
173 23 182 9 4 -5 10 1 14 13 6 19 14 21 74 21 38 0 82 3 99 6 26 5 31 3 34
-17 2 -16 8 -22 18 -19 8 3 54 5 103 5 61 0 87 4 87 12 0 13 27 19 133 28 66
5 67 5 67 -19 0 -14 5 -28 10 -31 6 -3 10 -2 10 3 0 6 44 13 97 17 61 5 102
13 108 21 5 7 30 15 55 18 25 2 66 8 93 12 47 7 47 7 47 -22 0 -20 3 -25 9
-16 6 10 33 13 105 10 91 -3 96 -2 96 17 0 17 15 24 99 46 55 15 102 24 105
21 4 -3 6 -26 6 -51 1 -36 3 -42 11 -29 11 20 97 48 145 48 22 0 33 5 36 18
10 37 -1 42 -98 42 l-94 0 0 40 c0 27 -4 38 -12 35 -7 -3 -49 2 -93 10 -44 9
-87 17 -95 18 -9 1 -16 -7 -18 -19 -3 -20 -7 -21 -75 -16 -40 3 -84 6 -99 6
-24 1 -28 5 -28 29 0 15 -4 27 -10 27 -5 0 -10 -4 -10 -8 0 -4 -37 -5 -82 -1
-61 6 -85 12 -95 25 -12 16 -13 14 -13 -18z"/>
<path d="M2982 930 c0 -14 2 -19 5 -12 2 6 2 18 0 25 -3 6 -5 1 -5 -13z"/>
<path d="M7099 923 l-6 -33 51 2 c50 1 50 2 9 5 -37 4 -42 7 -45 31 -3 26 -4
26 -9 -5z"/>
<path d="M68 273 c6 -2 18 -2 25 0 6 3 1 5 -13 5 -14 0 -19 -2 -12 -5z"/>
<path d="M123 115 c0 -27 2 -38 4 -22 2 15 2 37 0 50 -2 12 -4 0 -4 -28z"/>
<path d="M23 73 c15 -2 39 -2 55 0 15 2 2 4 -28 4 -30 0 -43 -2 -27 -4z"/>
</g>
</svg>
